<?xml version="1.0" encoding="utf-8"?>
<!DOCTYPE svg PUBLIC "-//W3C//DTD SVG 1.0//EN" "http://www.w3.org/TR/2001/REC-SVG-20010904/DTD/svg10.dtd">
<svg version="1.0" xmlns="http://www.w3.org/2000/svg" width="1200px" height="1200px" viewBox="0 0 1200 1200" preserveAspectRatio="xMidYMid meet">
 <g fill="#512f7e">
  <path d="M582 1035 c-3.2 -0.8 -4.1 -1.6 -7.3 -6.3 -1.1 -1.6 -1.4 -1.6 -5 0.9 -2.6 1.9 -5.4 2.9 -9.1 3.2 -5 0.4 -5.6 0.2 -9.3 -3.2 -7.9 -7 -6.1 -16.1 4.3 -22.2 1.7 -1 1.7 -1.2 -0.4 -3.9 -6.5 -8.3 3.5 -18 15 -14.6 5.3 1.6 7.8 4.3 7.8 8.4 0 3.7 -1.9 5.9 -6.3 7.6 -1.5 0.6 -2.7 1.4 -2.7 1.8 0.1 0.5 2 3 4.4 5.7 4.7 5.3 5.7 5.3 8.2 0.3 1.6 -3 1.6 -3.2 -0.5 -4.5 -4.9 -3.3 -2.5 -3.6 13.7 -1.6 5.2 0.6 5.4 1.9 0.5 2.9 -3.8 0.7 -10.4 4.7 -13.7 8.4 -1.9 2 -1.8 2.1 0.8 6.1 3.1 4.7 7.9 8 11.9 8 2.5 0 3.6 1.3 2 2.3 -1.8 1 -11.1 1.5 -14.3 0.7z m-12.7 -9.1 c1.2 -0.7 2.4 -1.3 2.6 -1.5 0.2 -0.1 -2.5 -3.8 -6 -8 l-6.3 -7.7 -2.3 2.7 c-6.6 7.7 2.9 19.2 12 14.5z m0.7 -28.9 c0 -3 -2.2 -6 -4.4 -6 -0.7 0 -2.1 0.9 -3 1.9 -2 2.2 -1.6 4.6 1.6 8.7 l2.2 2.7 1.8 -2.3 c1 -1.2 1.8 -3.5 1.8 -5z"/>
  <path d="M626.4 1032.2 c0.3 -0.6 2.2 -1.6 4.1 -2.2 1.9 -0.6 3.7 -2 4 -3.1 0.6 -1.8 -1.1 -26.6 -2.1 -31.8 -0.5 -2.1 -0.9 -2.3 -4.5 -1.8 -4.8 0.6 -7.4 2.8 -9.1 7.3 -1.9 5.3 -2.8 4 -2.8 -4.1 l0 -7.5 2.5 0.6 c4.1 1 32.7 -1.6 35.3 -3.2 2.6 -1.7 2.5 -1.8 4.2 6.9 1.2 6.1 0.6 8.6 -1.4 5.3 -2.9 -5.1 -5.4 -6.6 -10.6 -6.6 -2.7 0 -5 0.3 -5 0.8 0 5.1 3.2 31.7 4 33.1 0.6 1.2 2.6 2.2 5 2.6 8.6 1.5 4.1 2.7 -14.9 4.1 -6.6 0.5 -9.2 0.4 -8.7 -0.4z"/>
  <path d="M668 1028 c0 -0.5 1.4 -1.6 3 -2.5 3.8 -2 3.8 -3.1 0 -19.8 -3.2 -14 -4.8 -16.7 -9.6 -16.7 -2.8 0 -3.2 -1.6 -0.6 -2.4 5 -1.4 33.5 -7.7 33.7 -7.4 0.2 0.2 0.6 2.6 1 5.4 0.8 6 -0.7 7.9 -2.7 3.7 -1.3 -2.7 -1.7 -2.8 -8.6 -2.7 -3.9 0 -7.5 0.3 -7.8 0.7 -0.7 0.6 1.3 12.1 2.5 14.4 0.4 0.8 1.9 0.7 5.6 -0.5 3.6 -1.3 5.4 -2.5 6.5 -4.7 2 -4 1.9 -3.9 2.5 -3.4 0.8 0.9 3.6 15.2 3 15.7 -0.3 0.3 -1.6 -0.5 -2.9 -1.7 -2.2 -2 -3.1 -2.2 -7.5 -1.6 -2.8 0.4 -5.3 1 -5.5 1.4 -0.8 1.2 2 11.9 3.5 13.7 1 1.2 2.5 1.5 6.3 1.1 6.1 -0.5 10.2 -4.5 11.2 -10.7 1 -6.4 2.9 -4.2 3.2 3.8 0.3 6.7 0.2 7.2 -2 7.7 -18.6 4.4 -32.5 7.5 -33.5 7.5 -0.7 0 -1.3 -0.4 -1.3 -1z"/>
  <path d="M502 1007.5 c-6.2 -10.7 -11.4 -19.4 -11.6 -19.2 -0.9 0.9 -4.5 21 -4.2 23.4 0.2 1.8 1.4 3.5 3.5 4.8 3.4 2.1 4.2 3.5 2.1 3.5 -2.8 0 -19.8 -4.3 -19.8 -5 0 -0.4 1.5 -1.1 3.4 -1.4 1.9 -0.4 3.9 -1.2 4.5 -2 1.3 -1.5 7.1 -25.3 7.1 -29 0 -1.5 -1.2 -3.4 -3.1 -5.1 -1.7 -1.4 -2.9 -2.9 -2.5 -3.2 0.3 -0.3 3.6 0 7.3 0.8 6.4 1.4 6.9 1.7 8.9 5.6 1.1 2.2 5.6 10.4 10 18.2 l7.9 14.1 2.2 -10.3 c3.1 -14.3 3 -15.3 -1.2 -17.8 -3.1 -1.9 -4.6 -3.9 -2.9 -3.9 2.4 0 18.4 4.3 18.4 5 0 0.4 -1.3 1 -2.9 1.3 -1.6 0.3 -3.2 1.4 -3.6 2.4 -0.5 1 -2.7 9.7 -5 19.3 -2.9 12.5 -4.6 17.6 -5.6 17.8 -1.1 0.2 -5.1 -5.9 -12.9 -19.3z"/>
  <path d="M719.7 1013 c-11 -3.3 -17.2 -18.8 -12 -29.8 4.1 -8.7 15.3 -15.3 26.3 -15.6 l5.4 -0.1 2.3 5.5 c1.2 3 1.8 5.9 1.4 6.3 -0.4 0.4 -2.6 -1 -4.8 -3.3 -3.5 -3.4 -4.7 -4 -8.2 -4 -11.5 0 -17.4 9.7 -13.7 22.4 2 6.9 7.6 12.9 13.6 14.7 3.5 1.1 4.7 1 8.7 -0.7 5.2 -2.1 8.1 -6.5 9 -13.4 0.4 -2.5 1.1 -4 1.9 -4 1.1 0 1.4 1.8 1.4 7.3 0 7.1 -0.1 7.2 -3.4 9.5 -8 5.4 -19.8 7.6 -27.9 5.2z"/>
  <path d="M452.2 1008.5 c-15.5 -3.4 -24.2 -12 -24.2 -24 0 -12.3 9.7 -21.8 22.5 -21.9 7.7 0 15.3 2.6 21.4 7.4 l4.9 3.9 -2.1 5.6 c-2.6 6.6 -4.7 7.2 -4.7 1.5 0 -5.4 -2.1 -9.3 -6.6 -12.1 -10.5 -6.4 -23.2 1.6 -25.1 15.9 -1.1 8.3 4.2 17.4 11.6 20 3 1.1 3.3 0.9 5.1 -2.1 1.1 -1.8 2.3 -4.7 2.6 -6.6 0.6 -3 0.3 -3.7 -2.7 -6.2 -1.9 -1.5 -3.1 -3 -2.8 -3.4 0.9 -0.8 20.2 7 20.7 8.4 0.2 0.6 -0.8 1.1 -2.3 1.1 -2.2 0 -3 0.9 -5 5.2 -2.1 4.5 -2.2 5.4 -1 6.1 2.7 1.5 1.6 2.7 -2.2 2.6 -2.1 0 -6.7 -0.7 -10.1 -1.4z"/>
  <path d="M759.6 1003.1 c-0.4 -0.6 0.5 -1.8 2 -2.7 3.7 -2.5 3 -6.2 -4.5 -21.8 l-6.2 -12.8 -4.5 0.5 c-7 0.7 -5 -1.2 6.9 -6.7 11 -5.1 14 -5.5 9.4 -1.2 -1.5 1.4 -2.7 3 -2.7 3.5 0 1.7 4.4 12.1 5.1 12.1 0.4 0 5 -2 10.3 -4.5 l9.7 -4.5 -3.1 -6.1 c-3.1 -6 -3.2 -6 -7 -5.8 -2.2 0.2 -4.2 0 -4.6 -0.4 -0.7 -0.7 19.5 -10.7 21.6 -10.7 1.7 0 1.1 1.9 -0.9 3 -3.8 2 -3.5 4.6 2.5 17.6 7.3 16 8.4 17.4 12.8 16.7 6.8 -1.1 4.2 1.5 -6.6 6.5 -6.3 2.9 -11.6 4.8 -12 4.4 -0.5 -0.5 0.2 -1.6 1.6 -2.6 3.4 -2.2 3.3 -6.5 -0.2 -13.3 l-2.7 -5.1 -9.4 4.4 c-5.2 2.4 -9.6 4.6 -9.8 4.8 -0.2 0.2 1 3.3 2.8 6.9 3.2 6.9 5 8.2 9.2 7.2 8.5 -2.2 -3.9 5.5 -18.4 11.3 -0.4 0.2 -1 -0.1 -1.3 -0.7z"/>
  <path d="M405.5 988.5 c-11 -6 -13.1 -8.1 -6.7 -7 3.7 0.6 4.2 0.4 6.5 -2.7 2.9 -3.8 13.7 -24.9 13.7 -26.7 0 -0.7 -1.1 -2.3 -2.5 -3.7 -4.2 -4.2 -1.8 -4.5 5.3 -0.7 12.6 6.8 15.2 8.4 14.7 9.3 -0.3 0.4 -2.1 0.4 -4 0 -3.2 -0.7 -3.8 -0.5 -5.9 2.3 -3.7 5.1 -13.6 24.4 -13.6 26.7 0 1.1 1.1 3 2.5 4.2 2.2 1.9 2.6 4 0.7 3.7 -0.4 -0.1 -5.2 -2.5 -10.7 -5.4z"/>
  <path d="M817 974.6 c0 -0.7 0.7 -1.9 1.5 -2.6 2.8 -2.3 1.6 -6.1 -5.1 -16.4 -9 -13.8 -10 -14.8 -14.6 -14.5 -2 0.2 -4 0 -4.3 -0.3 -0.4 -0.3 2 -2.4 5.3 -4.7 l6 -4 4.4 1.4 c6.2 2.1 34.2 9.4 34.6 9 0.5 -0.5 -11.3 -17.8 -13.2 -19.4 -1.3 -1.1 -2.4 -1.2 -5.5 -0.2 -4.6 1.3 -5.1 1.4 -5.1 0.2 0 -1 16 -11.4 16.6 -10.8 0.2 0.2 -0.1 1.7 -0.8 3.4 -1.3 3.5 0.2 6.6 12.2 25.1 5.3 8.2 7 11.6 6.2 12.4 -0.8 0.8 -6.9 -0.4 -22.2 -4.2 -11.6 -2.9 -21.3 -5 -21.6 -4.7 -0.8 0.7 12.5 19.7 14.1 20.4 0.7 0.2 2.9 0 4.9 -0.5 6.4 -1.8 4.9 0.6 -3.8 6.3 -4.7 3 -8.8 5.5 -9.1 5.5 -0.3 0 -0.5 -0.6 -0.5 -1.4z"/>
  <path d="M379.3 973.8 c-2.9 -0.6 -6 -2.5 -9.8 -6 -3 -2.7 -5.5 -5.5 -5.5 -6.1 0 -0.7 1 -3.5 2.2 -6.4 2.7 -6.7 5 -7.2 4.2 -0.9 -1.5 11 7.5 19.9 13.6 13.4 2.9 -3.1 2.5 -5.5 -2.1 -15.2 -4.8 -10 -4.8 -13.8 0.2 -18 6.1 -5.2 17.6 -2.7 23.5 4.9 l2.3 3.1 -3.2 4.6 c-3 4.4 -5.7 5.9 -4.8 2.7 0.2 -0.8 0.6 -3.2 0.8 -5.5 0.4 -3.4 0.1 -4.5 -1.8 -6.3 -2.9 -2.6 -6.3 -2.7 -8.9 -0.1 -2.9 2.9 -2.5 5.2 2.2 15.3 4 8.8 4.1 9.2 2.7 13 -2.3 6.6 -7.8 9.2 -15.6 7.5z"/>
  <path d="M337.9 946.4 c-7.9 -6.4 -14.6 -11.8 -14.8 -12 -1.4 -1.2 1.3 -1.5 3.9 -0.4 2.5 1 3.5 1 5.3 0.1 2.5 -1.5 15.5 -16.9 18.7 -22.4 l2.2 -3.7 -2.1 -2.9 c-5.1 -7.1 -2 -5.5 13.6 7.1 7.6 6.1 14 11.3 14.2 11.5 0.7 0.5 -7.1 8.3 -8.2 8.3 -0.5 0 -0.6 -1.2 -0.2 -2.7 1.3 -4.6 0.8 -6.4 -2.7 -10 -5.7 -5.9 -6 -5.9 -11.4 0.4 l-4.8 5.6 3.9 3.4 c4 3.4 6.3 4 9.5 2.3 1.1 -0.6 2.1 -0.6 2.4 -0.1 0.7 1.1 -9.1 12.8 -10.1 12.1 -0.4 -0.3 -0.6 -1.9 -0.4 -3.6 0.2 -2.5 -0.5 -3.8 -3.9 -6.8 l-4.2 -3.7 -4.4 5.6 c-2.4 3.2 -4.4 6.4 -4.4 7.3 0 2.2 6.5 7.9 9.9 8.7 2 0.4 4.5 0 7.7 -1.4 5.5 -2.5 5.4 -2.5 5.4 -0.7 0 1.2 -8.9 9.6 -10.2 9.6 -0.3 0 -7 -5.2 -14.9 -11.6z"/>
  <path d="M862.5 933.9 c-4.8 -1.4 -10.2 -6.5 -13.1 -12.5 -4.4 -9 -2.5 -18.2 5.3 -26 8.7 -8.8 21 -10.8 29.6 -4.8 6.7 4.8 10 10.3 10.5 17.7 0.3 5.3 0 7 -2.5 11.7 -5.9 11.3 -18.6 17.2 -29.8 13.9z m19.5 -7.4 c6.2 -3.2 7.7 -10.1 3.9 -17.8 -2.9 -5.8 -6.5 -9.4 -12.1 -12.3 -7.8 -4 -15.1 -2.5 -18.3 3.6 -2.2 4.2 -1.9 7.9 1.1 13.8 5.5 11 17.3 16.9 25.4 12.7z"/>
  <path d="M310.6 919.5 c-2.1 -0.7 -5.4 -2.4 -7.3 -3.8 -4.7 -3.4 -21.5 -19.9 -20.8 -20.5 0.3 -0.3 2 0.2 3.9 1 3.2 1.6 3.5 1.6 6.7 -0.7 3.9 -2.6 20.9 -21 20.9 -22.6 0 -0.6 -0.8 -2.4 -1.7 -4 -3.8 -6.4 0.5 -3.8 10.6 6.6 11.9 12.2 15.3 17.9 15.3 25.4 0 5.8 -1.9 9.6 -7.1 14.4 -6 5.4 -13 6.9 -20.5 4.2z m9.1 -8.1 c7 -4.6 11.2 -12.9 9.9 -19.8 -0.7 -3.5 -6 -12.6 -7.4 -12.6 -1.8 0 -23.2 24.1 -23.2 26.1 0 8.1 12.1 11.8 20.7 6.3z"/>
  <path d="M573.5 916.9 c-144.7 -12.2 -262.7 -120.9 -287 -264.3 -21 -124 33.7 -249.1 139 -318.2 115.6 -75.8 265 -68.7 373.5 17.7 13.4 10.6 38.1 35.4 49 48.9 102.9 128.9 90.9 314.4 -27.9 428.2 -66 63.3 -156.1 95.3 -246.6 87.7z m-28.5 -35.4 c0 -1.2 -1.3 -1.5 -5.5 -1.5 l-5.5 0 0 -3.5 c0 -3.5 0 -3.5 4.5 -3.5 3.3 0 4.5 -0.4 4.5 -1.5 0 -1.1 -1.2 -1.5 -4.5 -1.5 -4.3 0 -4.5 -0.1 -4.5 -2.9 0 -2.9 0.2 -3 5.2 -3.3 3 -0.2 5.3 -0.8 5.6 -1.5 0.3 -1 -1.6 -1.3 -7.2 -1.3 l-7.6 0 0 11 0 11 7.5 0 c6 0 7.5 -0.3 7.5 -1.5z m13.9 0.1 c0.7 -0.8 1.1 -2.7 0.9 -4.3 -0.3 -2.4 -0.9 -2.9 -4.5 -3.6 -2.8 -0.5 -4.3 -1.3 -4.3 -2.3 0 -1.2 0.9 -1.5 3.8 -1.2 2.8 0.2 3.7 -0.1 3.7 -1.2 0 -1.9 -7 -2.6 -9.1 -0.9 -1.8 1.5 -1.4 5.9 0.6 7 0.8 0.4 2.7 1 4.3 1.4 1.6 0.3 2.7 1.2 2.7 2.1 0 1.4 -0.8 1.6 -4.5 1.2 -4.9 -0.6 -6 -0.1 -4.4 1.9 1.5 1.8 9.3 1.7 10.8 -0.1z m12.1 0.4 c0 -0.6 -0.7 -1.3 -1.5 -1.6 -1.1 -0.4 -1.5 -2.1 -1.5 -5.5 0 -3.7 0.4 -4.9 1.5 -4.9 0.8 0 1.5 -0.5 1.5 -1 0 -0.6 -0.7 -1.3 -1.5 -1.6 -0.8 -0.4 -1.5 -1.5 -1.5 -2.5 0 -1.2 -0.7 -1.9 -2 -1.9 -1.3 0 -2 0.7 -2 1.8 0 1 -0.6 2.4 -1.2 3.1 -1 1.1 -1 1.4 0 1.8 0.7 0.3 1.2 2.3 1.2 4.9 0 2.5 0.5 5.4 1 6.5 1.1 2 6 2.7 6 0.9z m16 -10.2 c0 -10.1 -0.1 -10.8 -2 -10.8 -1.6 0 -2 0.7 -2 3.3 0 3.2 -0.2 3.3 -3 2.9 -4.6 -0.7 -6 1.2 -6 7.7 0 3.1 0.5 6.2 1.2 6.9 0.6 0.6 3.5 1.1 6.5 1 l5.3 -0.2 0 -10.8z m8 9.2 c0 -1.3 -0.7 -2 -2 -2 -1.3 0 -2 0.7 -2 2 0 1.3 0.7 2 2 2 1.3 0 2 -0.7 2 -2z m25 0.5 c0 -1.1 -1.1 -1.5 -4 -1.5 -2.2 0 -4 -0.2 -4 -0.5 0 -0.3 1.8 -2.8 4 -5.6 5.2 -6.6 5.3 -10.1 0.2 -12.8 -3.5 -1.9 -9.2 0.9 -9.2 4.5 0 2 2.3 1.7 4.3 -0.6 1.4 -1.7 2.1 -1.8 3.7 -1 3 1.6 2.5 3.2 -3 9.8 -6.8 8.2 -6.7 9.2 1.5 9.2 5.1 0 6.5 -0.3 6.5 -1.5z m16.4 -0.7 c1.1 -1.5 1.6 -4.5 1.6 -9.4 0 -5.8 -0.4 -7.4 -2 -8.9 -2.7 -2.4 -7.9 -2.4 -9.6 0 -2 2.8 -1.9 16.9 0.2 18.9 2.4 2.4 8 2 9.8 -0.6z m13.6 -8.8 c0 -9.9 -0.2 -11 -1.8 -11 -2.7 0 -6.2 2.9 -6.2 5.2 0 2 0.1 2 1.8 0.5 1 -1 2.2 -1.7 2.5 -1.7 0.4 0 0.7 4.1 0.7 9 0 7.3 0.3 9 1.5 9 1.2 0 1.5 -1.9 1.5 -11z m18.1 9.3 c0.8 -0.9 1.4 -3.6 1.4 -6 0 -5.2 -2.4 -7.7 -6.7 -7 -2.4 0.3 -2.8 0 -2.8 -2 0 -2.1 0.5 -2.3 4.5 -2.3 3.3 0 4.5 -0.4 4.5 -1.5 0 -1.2 -1.3 -1.5 -6 -1.5 l-6 0 0 6 c0 6.2 0.6 6.9 3.9 4.8 3.7 -2.3 6.7 1.3 5 6 -1 2.5 -4.7 3 -5.5 0.7 -0.4 -0.8 -1.2 -1.5 -2 -1.5 -1.7 0 -1.8 3.2 -0.2 4.8 1.8 1.8 8.3 1.5 9.9 -0.5z m-93.7 -48.1 c-1.6 -2.5 -1.6 -2.6 0.4 -4 2.6 -1.7 2.9 -5.8 0.6 -9 -1.5 -2.1 -1.4 -2.2 2 -2.2 l3.6 0 0 5.8 c0 5.3 0.2 6 2.5 7 l2.5 1.2 0 -10.5 0 -10.5 4 0 4 0 0 9.3 c0 8.1 0.2 9.4 2 10.5 2 1.2 2 1 2 -9.3 l0 -10.5 9 0 9 0 0 3 c0 3 -0.1 3 -5.4 3 -6.3 0 -8.1 1.4 -6.3 5 1.6 3.2 4.3 3.7 5 1 0.4 -1.7 1.2 -2.1 3.4 -1.8 2.5 0.3 2.8 0.7 3.1 4.5 0.2 3 0.9 4.6 2.3 5.3 1.8 1 1.9 0.7 1.9 -9.5 l0 -10.5 2.5 0 c2.3 0 2.4 -0.2 1.5 -2 -1 -1.9 -2.1 -2 -31.5 -2 -16.8 0 -30.5 0.4 -30.5 0.8 0 2.3 3 3.2 10.7 3.2 6.7 0 8.3 0.3 8.3 1.5 0 1.2 -1.4 1.5 -7 1.5 -7.4 0 -8.5 0.8 -4.5 3.4 3.7 2.5 4.8 5.1 2.9 7.1 -1.2 1.1 -2 1.3 -2.7 0.6 -1.9 -1.9 -3.7 -1.2 -3.7 1.4 0 1.8 0.7 2.6 2.3 3.1 1.4 0.3 3.1 2 4.1 4 0.9 1.9 2.1 3.2 2.7 2.9 0.6 -0.5 0.4 -1.6 -0.7 -3.3z m118.9 3.1 c0.4 -0.3 0 -1.8 -0.9 -3.2 -1.6 -2.4 -1.6 -2.6 0.4 -3.9 2.6 -1.7 2.8 -5.3 0.6 -8.7 -1.6 -2.5 -1.6 -2.5 2 -2.5 l3.6 0 0 5.6 c0 4.2 0.4 6 1.8 7 0.9 0.7 2 1.4 2.5 1.4 0.4 0 0.7 -4.7 0.7 -10.5 l0 -10.5 4 0 4 0 0 9.3 c0 8.1 0.2 9.4 2 10.5 2 1.2 2 1 2 -9.3 l0 -10.5 5 0 c4.9 0 5 0.1 5 3 0 2.3 -0.5 3 -1.9 3 -2.3 0 -3.1 1.8 -2.1 4.5 1 2.5 8.8 11.5 10.1 11.5 1.8 0 0.8 -2.7 -2.1 -5.5 -2.8 -2.7 -2.9 -3 -1.3 -4.7 1.2 -1.3 1.9 -1.5 2.9 -0.7 0.8 0.6 2.7 0.9 4.3 0.7 2.8 -0.4 3 -0.2 3.3 3 0.2 2.3 1.1 4 2.6 5 l2.2 1.4 0 -10.6 0 -10.6 4 0 4 0 0 9.3 c0 8.1 0.2 9.4 2 10.5 2 1.2 2 1 2 -9.3 l0 -10.5 2.5 0 c2.3 0 2.4 -0.2 1.3 -2 -1.2 -1.9 -2.6 -2 -56.8 -2.2 l-55.5 -0.3 0 -3 c0 -4.4 4 -6.4 9.2 -4.6 2.1 0.7 5.5 2.6 7.6 4.3 4.3 3.3 5 2 1 -1.9 -3.1 -2.9 -11.9 -7.3 -14.6 -7.3 -5.5 0 -10 5.7 -7.7 10 1.5 2.8 1.3 3 -2 3 -2.8 0 -3 0.2 -2 2 0.6 1.1 2 2 3 2 1.8 0 2 0.7 2 9.5 0 8.3 0.2 9.6 1.9 10.5 1.1 0.5 2.2 1 2.5 1 0.3 0 0.6 -4.7 0.6 -10.5 l0 -10.5 12.6 0 c11.4 0 12.5 0.2 12.2 1.8 -0.2 1.3 -1.5 1.8 -6.1 2 -5.7 0.3 -5.7 0.3 -4.2 2.5 4.2 6 -0.5 7.8 -5.5 2.1 -1.7 -2 -3.4 -3.4 -3.6 -3.1 -0.9 0.8 2.2 6 5.3 8.8 3.8 3.6 6.7 4.4 8.8 2.3 1.6 -1.6 1.6 -2.8 0 -6.6 -0.6 -1.5 -0.2 -1.8 2.4 -1.8 3.1 0 3.1 0 3.1 5.5 0 4.4 0.4 5.6 2 6.5 1.9 1 2 0.8 2 -9.5 l0 -10.5 10.5 0 c8.7 0 10.5 0.3 10.5 1.5 0 1.2 -1.4 1.5 -7 1.5 -3.8 0 -7 0.3 -7 0.6 0 0.3 1.6 2 3.5 3.8 4.5 4.2 4 7.1 -1 6.2 -5.1 -1 -5.7 3.6 -0.8 5.5 1.4 0.5 3 2.3 3.6 3.9 1.2 3 1.8 3.5 3 2.3z m-277 -30.9 c-1 -0.7 -2.1 -1.4 -2.5 -1.4 -0.5 0 -0.8 6.3 -0.8 13.9 0 13.4 0.1 14.1 2.3 15.6 l2.2 1.5 0.3 -14.1 c0.2 -12.6 0.1 -14.3 -1.5 -15.5z m369 0 c-1 -0.7 -2.1 -1.4 -2.5 -1.4 -0.5 0 -0.8 6.2 -0.8 13.9 0 13.3 0.1 13.9 2.3 15.4 l2.2 1.4 0.3 -13.9 c0.2 -12.5 0.1 -14.2 -1.5 -15.4z m-357.3 15.4 c0 -10.8 -0.3 -13.5 -1.7 -15 -0.9 -1 -2 -1.8 -2.5 -1.8 -1.4 0 -1 28.8 0.5 29.3 3.5 1.5 3.7 0.9 3.7 -12.5z m348 -0.8 c0 -12.7 -0.2 -14 -1.9 -15 -1.1 -0.5 -2.2 -1 -2.5 -1 -0.3 0 -0.6 6.3 -0.6 14 0 12.2 0.2 14 1.8 14.9 0.9 0.6 2 1.1 2.5 1.1 0.4 0 0.7 -6.3 0.7 -14z m-308 -9 c2.2 0 2.3 -0.1 1.4 -2.4 -0.5 -1.2 -2.1 -1.6 -6.6 -1.6 -5.1 0 -5.9 0.2 -5.4 1.6 0.3 0.9 0.6 1.8 0.6 2 0 0.2 0.7 0.4 1.5 0.4 1 0 1.5 1 1.5 3.4 0 3.4 -1.3 4.6 -5 4.6 -1.5 0 -1.7 -0.6 -1.3 -3.8 0.4 -3.4 0.1 -4.2 -2.2 -6 -3.2 -2.6 -8.7 -2.9 -10.5 -0.7 -2.1 2.5 0.3 4.2 3.3 2.6 3.5 -1.9 6.2 -1.1 6.2 1.9 0 2 -0.6 2.6 -3 3 -1.6 0.3 -3 1.1 -2.9 1.8 0.3 3.2 0.5 3.3 3.4 2.7 2.7 -0.6 3 -0.4 3 1.8 0 4.7 -6 5 -10.1 0.6 -3.1 -3.3 -4.8 -3.4 -3.1 -0.2 1.7 3 6.5 7.1 9.3 7.8 3.4 0.8 7.2 -2.2 7.2 -5.9 0 -2 0.3 -2.6 1.4 -2.2 0.8 0.3 2.1 0.6 2.9 0.6 0.9 0 1.4 1.1 1.4 3.3 0 2.6 0.6 3.6 2.3 4.4 2.2 1 2.2 1 2.5 -9.3 0.2 -9.6 0.4 -10.4 2.2 -10.4z m34.5 0 c7.8 0 9.5 0.3 9.5 1.5 0 1.1 -1.2 1.5 -4.5 1.5 -4.8 0 -8.5 2.5 -8.5 5.8 0.1 2.5 3.4 9.5 5.4 11.1 2.3 1.9 3.3 0.5 1.3 -1.7 -0.9 -1 -1.9 -3.2 -2.3 -4.8 -0.7 -3.6 2.2 -6.7 5.8 -6.2 2 0.3 2.3 0.9 2.6 5.8 0.2 4.2 0.8 5.9 2.2 6.8 1.9 1.2 2 0.9 2 -9.3 l0 -10.5 4 0 3.9 0 0.3 9.1 c0.3 8.2 0.5 9.3 2.6 10.7 l2.2 1.4 0 -10.6 c0 -9.9 0.1 -10.6 2 -10.6 1.1 0 2 -0.4 2 -0.8 0 -1.4 -2.3 -3.2 -4.1 -3.2 -0.9 0 -3 -2.2 -4.7 -4.9 -4.3 -6.9 -11.9 -10.6 -10.5 -5.1 0.3 1.2 1.4 2 2.7 2 2.6 0 3.5 0.7 6.5 4.5 l2.3 3 -20.4 0.5 -20.3 0.5 2.3 2.3 c5 5 0.6 15.2 -6.7 15.2 -1.7 0 -3.1 -0.4 -3.1 -1 0 -0.5 0.4 -1 0.9 -1 2.1 0 7.1 -5.9 7.1 -8.3 0 -5.8 -7.4 -10.1 -11.5 -6.7 -2.4 2 -1.9 6.6 1 8.8 2.6 2.1 2.4 3.2 -0.7 3.2 -2.4 0 -2.3 1.3 0.7 4.8 3.2 3.8 6.5 4.6 11 2.8 3.1 -1.3 3.5 -1.3 3.5 0.1 0 0.9 0.8 2.2 1.8 2.9 1.6 1.2 1.7 0.5 2 -9.2 l0.3 -10.4 9.4 0z m40.5 19.5 c1.8 -2.1 0.3 -5.5 -2.5 -5.5 -2.5 0 -3.9 2.3 -3 5.1 0.7 2.3 3.8 2.5 5.5 0.4z m0.7 -15.1 c0.6 -1.7 -0.6 -4.5 -2.3 -5.1 -2.1 -0.7 -4.7 2.3 -4 4.5 0.9 2.7 5.3 3 6.3 0.6z m210.3 -47.4 l0 -7 -154 0 -154 0 0 7 0 7 154 0 154 0 0 -7z m-343 -0.8 c0 -0.5 -2.5 -4.1 -5.6 -8 l-5.5 -7.2 2.5 -3.2 c7 -9.3 11.1 -23 12 -40.3 0.4 -9.5 0.4 -9.9 -1.1 -7 -0.9 1.7 -3.3 5 -5.3 7.5 -7 8.4 -10.8 18 -11.9 29.4 l-0.6 7.1 -4.6 -7 c-5.3 -8.2 -14.3 -23.3 -15.1 -25.5 -0.3 -0.9 0.5 -3.6 1.9 -6 1.4 -2.7 2.2 -3.5 1.8 -2 -0.3 1.4 -0.8 4.1 -1.1 6 -0.5 3.4 -0.5 3.4 1.1 1.5 7.3 -8.9 11.5 -21.3 12.6 -37.5 0.4 -6.9 1.1 -13.6 1.4 -15 0.3 -1.4 -0.3 -0.3 -1.4 2.3 -1.1 2.6 -3.5 6.5 -5.4 8.6 -7.3 8.1 -11.5 18 -12.6 30.1 l-0.7 7.5 -4.1 -8.5 c-2.2 -4.7 -5.7 -12.9 -7.8 -18.3 l-3.7 -9.8 2.3 -4.4 c2.8 -5.3 3.5 -5.3 1.4 -0.1 -2.6 6.1 -1.5 7.6 2.1 3 5.4 -6.7 9.5 -16 11 -24.7 1.6 -9.3 3.1 -17 3.8 -20.7 0.3 -1.4 0 -1 -0.6 0.9 -0.6 1.8 -4.1 6.5 -7.6 10.3 -7.3 8 -12 17 -12.9 24.7 -0.3 2.9 -0.9 4.8 -1.4 4.4 -0.8 -0.9 -7.9 -28.6 -7.9 -31 0 -0.9 2.4 -4.1 5.3 -7.2 6.3 -6.9 10.3 -14.7 13.2 -26.1 1.2 -4.7 2.5 -9.3 2.9 -10.2 0.4 -0.9 -1.4 0.4 -4.1 3 -2.7 2.6 -6.7 6.3 -8.8 8.2 -2.1 1.9 -5.3 6.6 -7.1 10.3 -1.8 3.7 -3.5 6.3 -3.9 5.7 -0.4 -0.6 -0.9 -9.1 -1.2 -18.8 l-0.4 -17.7 3.8 -2.3 3.8 -2.4 -3.4 3.6 c-1.9 2 -3.3 3.8 -3 4 0.8 0.8 8.2 -2.9 11.7 -5.8 1.8 -1.6 4.8 -5.6 6.8 -8.9 2 -3.4 4.8 -7.8 6.2 -9.7 l2.6 -3.5 -3.1 2.7 c-1.8 1.4 -4.9 2.9 -7 3.3 -5.3 0.9 -11.2 5.2 -15 10.9 l-3.3 4.8 0 -4.3 c0 -4.3 1.5 -19 2.6 -26 0.5 -3.4 0.9 -3.7 4.7 -4.3 6.1 -1 10 -3.2 16.1 -9.2 4.3 -4.1 5 -5.1 3 -4.4 -1.5 0.6 -4.1 0.8 -5.9 0.4 -3.7 -0.7 -11 2.1 -14.4 5.5 -1.2 1.2 -2.1 1.8 -2.1 1.4 0 -1.1 4.5 -20.8 5.9 -25.9 l1.1 -4.2 6.3 -0.4 c5.1 -0.3 7.1 -1 11.4 -4 l5.2 -3.5 -4.6 -0.7 c-6.9 -0.9 -9.5 -0.7 -12.7 0.9 -1.6 0.9 -3.1 1.3 -3.4 1.1 -0.6 -0.6 9.8 -31.7 11.1 -33.1 0.5 -0.6 0.5 -0.2 0.1 1 -0.6 1.8 -0.4 1.7 2 -0.5 3.4 -3.1 6.2 -8.4 7.5 -14.2 0.6 -2.5 1.3 -5.2 1.6 -6.1 1.2 -2.9 -8.6 6.7 -10.5 10.3 -1 2 -2.1 5.4 -2.5 7.5 -0.4 2.2 -1.6 6.3 -2.7 9 -1.2 2.8 -3.8 9.7 -5.9 15.5 -3.7 10.3 -3.8 10.4 -3.8 5.9 -0.1 -3.4 -1.2 -6.8 -3.8 -12 l-3.8 -7.3 -0.3 7.6 c-0.2 5.8 0.2 8.8 1.9 13.4 1.8 4.7 2.4 5.5 2.9 3.9 0.7 -1.9 0.7 -1.9 1.4 0.1 0.4 1.3 -0.4 5.7 -1.7 10.5 -1.3 4.6 -3.3 11.8 -4.3 15.9 l-1.8 7.5 -0.7 -4.6 c-0.9 -5.7 -2.8 -9.5 -7.8 -15.3 l-4 -4.5 0.6 5.7 c0.7 8.1 3 15.8 6.1 20.4 2.1 3.3 2.7 3.7 3.2 2.2 1.5 -4.3 1.8 1 0.5 9.2 -0.8 4.9 -1.8 13.1 -2.1 18.2 l-0.7 9.3 -2.4 -4.8 c-2.9 -5.7 -6.7 -9.9 -10.8 -12 -1.6 -0.8 -4.2 -2.6 -5.6 -4 l-2.7 -2.4 3 8.7 c3.3 9.9 7.2 16 12.4 20 4.1 3.2 5.4 2.6 2.9 -1.3 l-1.8 -2.8 2.1 1.9 c1.9 1.6 2.2 3 2.2 9 0 7.9 1.7 29.2 2.7 34.6 l0.6 3.5 -3.4 -4.5 c-4.3 -5.6 -13 -11 -17.9 -11 -5.3 0 -10.5 -1.8 -14.2 -4.7 -2.4 -1.9 -2.1 -1.3 1.3 2.3 2.5 2.7 6 7 7.7 9.5 5.7 8.5 13.7 13.9 22.7 15.4 l4 0.6 -2.5 -2.3 c-1.4 -1.3 -3.9 -3.3 -5.5 -4.6 l-3 -2.3 4 2 c2.2 1.1 4.7 2.2 5.6 2.5 1.1 0.3 2 2.6 2.9 7.3 1.2 6.4 6 24.6 7.6 28.7 0.5 1.3 -0.8 0.7 -4.3 -2.1 -6.3 -4.9 -12.4 -6.7 -20.3 -6 -4.9 0.4 -6.8 0.1 -10.3 -1.7 -3.9 -1.9 -3.5 -1.4 4.6 6.4 11.9 11.4 16.8 14.2 26 14.7 l7.2 0.4 -4 -2.5 c-2.2 -1.4 -4.7 -2.9 -5.5 -3.5 -0.8 -0.5 0.7 -0.3 3.5 0.5 2.7 0.8 5.2 1.8 5.6 2.2 0.4 0.4 1.9 3.9 3.4 7.7 1.6 3.9 4.8 11 7.2 15.9 2.4 4.8 4.3 9 4.1 9.2 -0.3 0.2 -2.8 -0.5 -5.6 -1.6 -7 -2.7 -13.4 -2.5 -20.7 0.5 -3.3 1.4 -7.6 2.5 -9.5 2.6 l-3.5 0.1 3.2 1.4 c1.7 0.7 5.9 3.1 9.2 5.3 7.7 5 16.2 6.7 24.6 5.2 9.8 -1.8 9.1 -3.1 -2.9 -5.6 -4.2 -0.9 -2.8 -1.1 3.6 -0.7 l5.7 0.4 4.2 7.1 c2.3 4 6.9 11.1 10.1 15.9 l5.8 8.7 -5.3 -2.6 c-7.1 -3.6 -16 -3.8 -23.6 -0.4 -4.1 1.7 -6.7 2.2 -10.3 1.9 -2.6 -0.3 -4.8 -0.4 -4.8 -0.2 0 0.1 2.1 0.9 4.6 1.8 2.6 0.9 6.2 2.7 8.1 4.1 8 6.2 18.6 8.6 28.6 6.5 3.1 -0.6 5.7 -1.5 5.7 -2 0 -0.8 -3.7 -2.1 -9.5 -3.3 -1.1 -0.2 0.6 -0.5 3.8 -0.8 l5.8 -0.4 6.6 8.8 c6.1 8 8.3 10.1 8.3 7.9z m386.3 -7.9 l6.6 -8.8 5.8 0.4 c3.2 0.3 4.9 0.6 3.8 0.8 -5.8 1.2 -9.5 2.5 -9.5 3.3 0 1.5 11.2 3.3 16.8 2.6 6.4 -0.8 10.8 -2.5 17.6 -7 2.8 -1.8 6.8 -3.9 8.9 -4.5 2 -0.7 3.7 -1.4 3.7 -1.5 0 -0.2 -2.2 -0.1 -4.8 0.2 -3.6 0.3 -6.2 -0.2 -10.3 -1.9 -7.7 -3.4 -16.9 -3.2 -23.8 0.4 l-5.1 2.6 5.8 -8.7 c3.2 -4.8 7.8 -11.9 10.1 -15.9 l4.2 -7.1 5.7 -0.4 c6.4 -0.4 7.8 -0.2 3.6 0.7 -12 2.5 -12.7 3.8 -2.9 5.6 8.5 1.6 16.9 -0.2 24.8 -5.4 3.4 -2.2 7.6 -4.6 9.2 -5.3 l3 -1.3 -3.6 -0.1 c-1.9 0 -6.3 -1.1 -9.7 -2.5 -7.4 -3 -13.4 -3.2 -20.4 -0.5 -2.8 1.1 -5.3 1.8 -5.5 1.6 -0.2 -0.1 1.9 -4.8 4.6 -10.3 2.7 -5.4 5.9 -12.7 7.1 -16.1 1.3 -3.5 2.7 -6.5 3.1 -6.8 1.6 -1 10.4 -3.2 8.9 -2.3 -0.8 0.6 -3.3 2.1 -5.5 3.5 l-4 2.5 7.2 -0.4 c9.3 -0.5 14.2 -3.3 26.5 -15.2 5.1 -4.9 7.7 -7.8 5.9 -6.5 -3.1 2.1 -4.4 2.4 -11.4 2.2 -9.7 -0.3 -14.1 1 -20.8 6 -3.5 2.7 -5 3.4 -4.5 2.1 1.6 -4 6.4 -22.2 7.6 -28.6 0.9 -4.7 1.8 -7 2.9 -7.3 0.9 -0.3 3.4 -1.4 5.6 -2.5 l4 -2 -3 2.3 c-1.6 1.3 -4.1 3.3 -5.5 4.6 l-2.5 2.3 4 -0.6 c9 -1.5 17 -6.9 22.7 -15.4 1.7 -2.5 5.2 -6.8 7.7 -9.5 3.4 -3.6 3.7 -4.2 1.3 -2.3 -3.7 2.9 -8.9 4.7 -14.2 4.7 -4.9 0 -13.6 5.4 -17.9 11 l-3.4 4.5 0.6 -3.5 c1 -5.4 2.7 -26.7 2.7 -34.6 0 -6.1 0.3 -7.4 2.2 -9 l2.2 -1.9 -1.8 2.8 c-2.4 4 -1.3 4.5 2.8 1.3 5.3 -4 9.5 -10.7 12.5 -20.2 l2.8 -8.4 -2.7 2.5 c-1.4 1.4 -3.1 2.5 -3.6 2.5 -2.4 0 -9.7 7.6 -12.3 12.8 l-2.8 5.5 -0.6 -9.4 c-0.4 -5.2 -1.4 -13.4 -2.2 -18.3 -1.3 -8.2 -1 -13.5 0.5 -9.2 0.5 1.5 1.1 1.1 3.2 -2.2 3.1 -4.6 5.4 -12.3 6.1 -20.4 l0.6 -5.7 -4 4.5 c-5 5.8 -6.9 9.6 -7.8 15.3 l-0.7 4.6 -1.7 -7 c-1 -3.8 -2.9 -11.1 -4.3 -16.2 -2.1 -7.3 -2.3 -9.5 -1.4 -11 1 -1.6 1.1 -1.6 0.7 0.5 -0.9 3.9 1.1 1.3 3.2 -4.4 2.6 -6.9 3.1 -22.7 0.6 -18.4 -4.5 7.7 -6.5 12.9 -6.5 17 -0.1 4.3 -0.2 4.1 -3.9 -6 -2.1 -5.8 -4.7 -12.7 -5.9 -15.5 -1.1 -2.7 -2.3 -6.8 -2.7 -9 -0.4 -2.1 -1.5 -5.5 -2.5 -7.5 -1.9 -3.6 -11.7 -13.2 -10.5 -10.3 0.3 0.9 1 3.6 1.6 6.1 1.3 5.8 4.1 11.1 7.5 14.2 2.4 2.2 2.6 2.3 2 0.5 -0.4 -1.2 -0.4 -1.6 0.1 -1 1.3 1.4 11.7 32.5 11.1 33.1 -0.3 0.2 -1.8 -0.2 -3.4 -1.1 -3.2 -1.6 -5.8 -1.8 -12.7 -0.9 l-4.6 0.7 5.2 3.5 c4.3 3 6.3 3.7 11.4 4 l6.3 0.4 1.1 4.2 c1.4 5.1 5.9 24.8 5.9 25.9 0 0.4 -0.9 -0.2 -2.1 -1.4 -3.4 -3.4 -10.7 -6.2 -14.4 -5.5 -1.8 0.4 -4.4 0.2 -5.9 -0.4 -2 -0.7 -1.3 0.3 3 4.4 6.1 6 10 8.2 16.1 9.2 3.8 0.6 4.2 0.9 4.7 4.3 1.1 7 2.6 21.7 2.6 26 l0 4.3 -3.2 -4.8 c-3.9 -5.7 -8.2 -8.9 -15.1 -10.9 -2.8 -0.8 -6.2 -2.5 -7.6 -3.8 l-2.4 -2.2 2.5 3.5 c1.4 1.9 4.2 6.3 6.2 9.7 2 3.3 5 7.3 6.8 8.9 3.5 2.9 10.9 6.6 11.7 5.8 0.3 -0.2 -1.1 -2 -3 -4 l-3.4 -3.6 3.8 2.4 3.8 2.3 -0.4 17.9 c-0.5 16.7 -1.6 23.1 -3.1 17.3 -1 -4.2 -5.5 -11.3 -9.3 -14.8 -2 -1.9 -5.9 -5.5 -8.6 -8.1 -2.7 -2.6 -4.5 -3.9 -4.1 -3 0.4 0.9 1.7 5.5 2.9 10.2 3 11.7 6.7 19.1 13.1 25.9 3 3.2 5.4 6.5 5.4 7.4 0 2.4 -7.1 30.1 -7.9 31 -0.5 0.4 -1.1 -1.5 -1.4 -4.4 -0.9 -7.7 -5.6 -16.7 -12.9 -24.7 -3.5 -3.8 -7 -8.5 -7.6 -10.3 -0.6 -1.9 -0.9 -2.3 -0.6 -0.9 0.7 3.7 2.2 11.5 3.7 20.5 1.6 9 6.1 19 11.2 25 3.8 4.5 4.6 3.2 2 -3.2 -2.2 -5.1 -1.4 -5 1.4 0.3 l2.4 4.5 -3.8 9.7 c-2.1 5.3 -5.7 13.5 -7.9 18.2 l-4 8.5 -0.7 -7.5 c-1.2 -12.6 -5 -21.7 -12.6 -30.1 -1.9 -2.1 -4.3 -6 -5.4 -8.6 -1.2 -2.9 -1.7 -3.6 -1.3 -1.8 0.3 1.7 1 8.4 1.4 15.1 1 15.6 5.3 28.1 12.5 36.9 1.6 1.9 1.6 1.9 1.1 -1.5 -0.3 -1.9 -0.8 -4.6 -1.1 -6 -0.3 -1.4 0.5 -0.4 2 2.2 l2.5 4.7 -5.5 9.5 c-3 5.3 -7.6 12.8 -10.2 16.8 l-4.7 7.3 -0.7 -7.2 c-1.1 -11.8 -4.6 -20.2 -11.9 -29.3 -2.1 -2.5 -4.4 -5.8 -5.3 -7.5 -1.5 -2.9 -1.5 -2.5 -1.1 7 0.9 17.3 5 31 12 40.3 l2.5 3.2 -5.5 7.2 c-3.1 3.9 -5.6 7.5 -5.6 8 0 2.2 2.2 0.1 8.3 -7.9z m-51.3 -9.3 l0 -6 -146 0 -146 0 0 6 0 6 146 0 146 0 0 -6z m-8 -16.5 l0 -5.5 -138 0 -138 0 0 5.5 0 5.5 138 0 138 0 0 -5.5z m-239.1 -12.4 l-2.4 -1.9 -0.3 -73.1 -0.2 -73.1 -6 0 -6 0 -0.2 73.1 -0.3 73.1 -2.4 1.9 c-2.3 1.9 -2.3 1.9 8.9 1.9 11.2 0 11.2 0 8.9 -1.9z m73 0 l-2.4 -1.9 -0.3 -73.1 -0.2 -73.1 -6 0 -6 0 -0.2 73.1 -0.3 73.1 -2.4 1.9 c-2.3 1.9 -2.3 1.9 8.9 1.9 11.2 0 11.2 0 8.9 -1.9z m73 0 l-2.4 -1.9 -0.3 -73.1 -0.2 -73.1 -6 0 -6 0 -0.2 73.1 -0.3 73.1 -2.4 1.9 c-2.3 1.9 -2.3 1.9 8.9 1.9 11.2 0 11.2 0 8.9 -1.9z m72.7 -1.2 l-2.6 -3.1 0.2 -71.9 0.3 -71.9 -6.2 0 -6.3 0 -0.2 73.7 -0.3 73.7 -2.5 1.3 c-2.2 1.1 -1 1.3 8.8 1.3 l11.4 0 -2.6 -3.1z m-219.6 -151.9 c1 -1.9 0.8 -2 -8 -2 -4.9 0 -9 0.2 -9 0.4 0 2.9 1.6 3.6 8.6 3.6 6.3 0 7.5 -0.3 8.4 -2z m73 0 c1 -1.9 0.8 -2 -8 -2 -8.8 0 -9 0.1 -8 2 0.9 1.7 2.1 2 8 2 5.9 0 7.1 -0.3 8 -2z m73 1.6 c0 -0.2 0.3 -1.1 0.6 -2 0.5 -1.4 -0.6 -1.6 -8.5 -1.6 -8.9 0 -9.1 0.1 -8.1 2 0.9 1.7 2.1 2 8.5 2 4.1 0 7.5 -0.2 7.5 -0.4z m73 0 c0 -0.2 0.3 -1.1 0.6 -2 0.5 -1.4 -0.6 -1.6 -8 -1.6 -4.7 0 -8.6 0.2 -8.6 0.4 0 2.9 1.6 3.6 8.6 3.6 4.1 0 7.4 -0.2 7.4 -0.4z m-221 -9.6 c0 -1.7 0.9 -4.7 2 -6.7 1.1 -2.1 2 -4.3 2 -5 0 -1.6 7.5 -6.7 15.2 -10.5 1 -0.4 2.8 -0.8 4.1 -0.8 1.2 0 3.2 -0.7 4.4 -1.5 1.9 -1.3 2.6 -1.3 5.5 -0.1 1.8 0.7 5.8 2.2 8.8 3.2 10.3 3.3 19.8 14.4 18.3 21.4 l-0.5 3 6.6 0 6.6 0 0 -3.4 c0 -4.2 4.4 -13.2 7.1 -14.7 1.1 -0.6 2.9 -1.9 4 -3 1.1 -1.1 3.3 -2.2 5 -2.6 1.6 -0.3 3.2 -1 3.5 -1.4 0.3 -0.5 1.7 -0.9 3.2 -0.9 1.5 0 3.7 -0.7 4.9 -1.5 1.9 -1.3 2.6 -1.3 5.5 -0.1 1.8 0.7 5.8 2.2 8.8 3.2 3 0.9 7.4 3.4 9.8 5.3 5.1 4.2 9.3 12.3 8.5 16.4 l-0.5 2.7 6.6 0 6.6 0 0 -3.4 c0 -4.3 4.4 -13.2 7.3 -14.8 1.2 -0.6 2.7 -1.8 3.3 -2.6 1.2 -1.7 9.9 -5.2 12.9 -5.2 1.1 0 3 -0.7 4.2 -1.5 1.9 -1.3 2.4 -1.3 5 0 1.5 0.8 3.5 1.5 4.3 1.5 2.5 0 10.8 3.5 12.7 5.3 1 1 3 2.7 4.6 3.8 1.5 1.1 2.7 2.9 2.7 3.9 0 0.9 0.7 2.3 1.5 3 0.9 0.8 1.5 3 1.5 5.6 l0 4.4 7.5 0 7.5 0 0 -21.5 0 -21.5 9 0 c8.3 0 9 -0.1 9 -2 0 -2 -0.7 -2 -135.5 -2 -134.8 0 -135.5 0 -135.5 2 0 1.9 0.7 2 9.5 2 l9.5 0 0 21.5 0 21.5 6.5 0 6.5 0 0 -3z m239 -51 l0 -5 -135 0 -135 0 0 5 0 5 135 0 135 0 0 -5z m2.9 -12.1 c1.3 -1.7 2.1 -3.2 1.9 -3.5 -0.3 -0.2 -63.5 -0.3 -140.6 -0.2 l-140.1 0.3 2 3.3 2.1 3.2 136.2 0 136.2 0 2.3 -3.1z m-230.1 -11.9 c0.6 -7.5 3.4 -20.6 6.3 -29.3 7.3 -21.8 20 -40.4 36.9 -54 l3.5 -2.8 -6.5 3.2 c-26.6 13.1 -46.4 36 -55.9 64.5 -2.9 8.9 -5.3 20.9 -4.2 21.9 0.3 0.3 4.8 0.4 10.1 0.3 l9.5 -0.3 0.3 -3.5z m54.6 -0.6 c0.3 -2.6 0.6 -6.6 0.6 -8.9 0 -7.1 3 -28.2 5.7 -40.5 4.5 -20.6 10.5 -34.7 18.1 -43.2 l3.5 -3.9 -2.9 0.6 c-8.7 2 -11.6 3 -18.5 6.6 -27.2 14.2 -48.7 49.8 -52.5 87.2 l-0.7 6.7 23 0 23 0 0.7 -4.6z m65.8 -4.9 c-1.5 -42.5 -13.3 -84.8 -25.4 -91.1 -4.8 -2.5 -7.8 -1.8 -12.3 2.9 -10.7 11.2 -18.4 39.3 -21.5 79.1 -0.5 7.1 -1 14.2 -1 15.8 l0 2.8 30.3 -0.2 30.2 -0.3 -0.3 -9z m52.8 7.8 c0 -1 -0.7 -5.9 -1.5 -10.8 -7.4 -46 -35.4 -81.1 -70.1 -88 l-3.2 -0.6 3.8 4.1 c10.4 11.3 18.7 36.8 22.5 69.6 0.8 7.1 1.5 15.9 1.5 19.5 0 3.6 0.3 6.9 0.7 7.2 0.3 0.4 10.9 0.7 23.5 0.7 21 0 22.8 -0.1 22.8 -1.7z m27.6 -4.5 c-0.9 -7.2 -4.5 -19.1 -8.7 -28.5 -6.9 -15.4 -21.2 -32.8 -35 -42.5 -7.2 -5.1 -19.8 -12.2 -20.4 -11.6 -0.2 0.2 1.8 2.2 4.6 4.3 9.9 7.8 22 23.9 28.1 37.2 4.6 10.3 8.4 22.8 10.3 34.3 0.9 5.8 1.9 11.1 2.1 11.8 0.2 0.8 3.1 1.2 10 1.2 l9.7 0 -0.7 -6.2z m-119.6 -102.3 c0 -3.7 0.4 -6.5 1 -6.5 0.6 0 1 2.8 1 6.5 0 5.8 0.2 6.5 2 6.5 1.7 0 1.9 -0.8 2.2 -6.7 0.3 -6.5 0.4 -6.8 2.8 -6.8 2.4 0 2.5 0.3 2.8 6.8 0.3 5.9 0.5 6.7 2.2 6.7 1.8 0 2 -0.8 2.2 -6.7 l0.2 -6.8 0.3 6.8 c0.3 4.9 0.8 6.7 1.8 6.7 1 0 1.5 -1.8 1.7 -6.7 0.3 -6.2 0.5 -6.8 2.6 -7.1 1.6 -0.3 2.2 -1 2.2 -2.8 0 -1.9 -0.5 -2.4 -2.6 -2.4 -1.7 0 -2.8 -0.6 -3.1 -2 -0.3 -1.1 -0.9 -2 -1.4 -2 -0.5 0 -0.9 -0.7 -0.9 -1.5 0 -0.8 -0.5 -1.5 -1 -1.5 -2.1 0 -5.1 -3.7 -4.4 -5.4 0.3 -0.9 0.2 -2.2 -0.3 -2.9 -0.6 -0.6 -0.9 -3 -0.7 -5.2 0.1 -2.2 0 -5.1 -0.3 -6.4 -0.9 -3.9 -2.4 0 -2.4 6.4 -0.1 3 -0.5 5.8 -1 6.1 -0.5 0.3 -0.6 1.6 -0.3 3 0.4 1.5 0.2 2.4 -0.6 2.4 -1.4 0 -4 2.5 -4 3.9 0 0.6 -0.7 1.1 -1.5 1.1 -0.8 0 -1.5 0.9 -1.5 1.9 0 1.4 -0.8 2.1 -2.7 2.3 -3.5 0.4 -4.5 3.7 -1.4 4.5 1.9 0.5 2.1 1.3 2.1 7.4 0 5.5 0.3 6.9 1.5 6.9 1.2 0 1.5 -1.4 1.5 -6.5z"/>
  <path d="M577.4 878.7 c-0.3 -0.8 -0.4 -3 -0.2 -4.9 0.2 -2.8 0.7 -3.3 2.8 -3.3 2.3 0 2.5 0.4 2.5 4.5 0 3.9 -0.3 4.5 -2.3 4.8 -1.3 0.2 -2.4 -0.3 -2.8 -1.1z"/>
  <path d="M628.7 879.3 c-1.3 -1.3 -0.8 -14 0.7 -15.2 1.8 -1.5 4.3 -0.5 5 2.2 0.9 3.5 0.7 9.7 -0.4 11.8 -1 1.9 -4 2.6 -5.3 1.2z"/>
  <path d="M731 815 l0 -4 4 0 c3.8 0 4 0.2 4 3 0 3.1 -2.2 5 -5.9 5 -1.8 0 -2.1 -0.6 -2.1 -4z"/>
  <path d="M476.7 816.3 c-2.2 -2.1 0.9 -7.1 3.8 -6 1.1 0.5 1.2 1.2 0.4 3.7 -1 2.8 -2.8 3.8 -4.2 2.3z"/>
  <path d="M398.5 749.8 c-0.4 -1.1 0.2 -3.5 1.4 -6.1 1.2 -2.4 2.1 -4.9 2.1 -5.7 0 -0.7 0.2 -1.1 0.5 -0.8 0.3 0.3 -0.3 3.6 -1.4 7.4 -1.3 4.8 -2.1 6.4 -2.6 5.2z"/>
  <path d="M347 628.8 c0.1 -0.7 1.2 -2.6 2.6 -4.3 l2.6 -3 -2.1 4.3 c-2.2 4.3 -3.1 5.2 -3.1 3z"/>
  <path d="M347 542 c0 -0.9 3.9 -2.5 4.6 -1.8 0.2 0.3 -0.7 1 -2.1 1.6 -1.4 0.6 -2.5 0.7 -2.5 0.2z"/>
  <path d="M355.5 505 c0.3 -0.5 1.6 -1 2.8 -0.9 2.1 0 2.1 0.1 0.2 0.9 -2.8 1.2 -3.7 1.2 -3 0z"/>
  <path d="M799.2 746.3 c-0.6 -2.7 -1.4 -5.9 -1.7 -7.3 -0.4 -1.4 0.6 0.4 2 3.8 1.7 4 2.4 6.7 1.8 7.3 -0.6 0.6 -1.4 -0.9 -2.1 -3.8z"/>
  <path d="M850.1 626.3 l-2.2 -4.8 2.5 3 c2.1 2.5 3.5 6.5 2.3 6.5 -0.2 0 -1.3 -2.1 -2.6 -4.7z"/>
  <path d="M850 541.5 c-1.5 -0.8 -1.9 -1.4 -1 -1.4 1.8 -0.1 4.6 1.6 4 2.3 -0.3 0.2 -1.6 -0.2 -3 -0.9z"/>
  <path d="M841.5 505 c-1.9 -0.8 -1.9 -0.9 0.2 -0.9 1.2 -0.1 2.5 0.4 2.8 0.9 0.7 1.2 -0.2 1.2 -3 0z"/>
  <path d="M908.8 905.4 c-0.4 -0.3 -0.1 -2 0.7 -3.7 0.7 -1.8 1 -3.8 0.8 -4.4 -0.5 -1.4 -16.8 -15.5 -22.2 -19.3 -3.3 -2.3 -3.4 -2.3 -6.7 -0.5 -1.9 1 -3.7 1.5 -4 1.2 -0.4 -0.4 2 -3.8 5.2 -7.7 3.3 -3.9 6.9 -8.3 8 -9.7 1.5 -1.7 2.4 -2.2 2.9 -1.3 0.4 0.6 0.2 1.7 -0.4 2.3 -1.2 1.2 -1.4 5.6 -0.3 7.3 1.3 2.1 23.6 20.4 24.7 20.4 1.5 0 4.9 -3.8 6.9 -7.7 2 -4 2 -7.8 0.2 -13.1 -1.1 -3.1 -1.2 -4.3 -0.4 -4.9 0.7 -0.3 1.3 -0.2 1.5 0.3 0.2 0.5 2.1 3.6 4.2 6.8 l3.9 5.9 -12 14.3 c-6.7 7.9 -12.2 14.4 -12.3 14.4 -0.1 0 -0.4 -0.3 -0.7 -0.6z"/>
  <path d="M253.6 878.5 c-5.2 -1.3 -6.1 -1.9 -5.2 -3.4 0.5 -0.7 1.5 -0.7 3.2 -0.1 6.8 2.6 10.8 0.1 9.3 -5.6 -1.2 -4.2 0.1 -6.4 3.7 -6.4 2.6 0 5.4 3.4 5.4 6.7 0 3.2 -5.4 9 -8.9 9.5 -1.6 0.2 -5 -0.1 -7.5 -0.7z"/>
  <path d="M927.5 859.4 c-9.2 -4.8 -13.5 -11.3 -13.5 -20.6 0 -3.1 0.7 -7.2 1.5 -9.2 2.2 -5.1 9.2 -12.5 14 -14.7 14.2 -6.5 31.5 4.8 31.5 20.7 0 8.4 -7.6 19.9 -15.5 23.5 -5 2.3 -13.9 2.4 -18 0.3z m23.1 -8.9 c3.2 -2.1 5.8 -7.9 4.9 -11.4 -1.8 -7.3 -9.7 -14.4 -18.7 -16.7 -6.6 -1.8 -11.7 -0.5 -15.2 3.7 -4.7 5.5 -2.9 12.8 4.8 19.6 8 7 17.8 9 24.2 4.8z"/>
  <path d="M245.1 849.9 c-12.1 -16.6 -14.8 -22.2 -8.1 -16.5 1.7 1.4 3.8 2.6 4.5 2.6 1.3 0 6.3 -3.2 23.2 -15 l6.2 -4.3 -2.6 -3.3 c-2.9 -3.8 -4.8 -4.7 -10.3 -4.3 -2.1 0.2 -4.2 0 -4.5 -0.3 -0.7 -0.7 10.9 -7.8 12.7 -7.8 0.5 0 0.7 0.7 0.4 1.6 -0.7 1.8 18.1 29.4 20.1 29.4 2.8 0 2.1 2.2 -1.8 5.7 -7 6.4 -9.3 6.9 -6.5 1.4 2.1 -4.1 2 -7.9 -0.4 -11.9 l-2 -3.3 -10.6 7.3 c-5.9 4 -12.4 8.9 -14.6 10.8 l-4 3.5 1.6 3.9 c1.9 4.5 1.9 4.6 0.6 4.6 -0.5 0 -2.3 -1.8 -3.9 -4.1z"/>
  <path d="M223.8 818.8 c-5.5 -8.6 -4.8 -16.4 2.5 -27.2 2.5 -3.6 3.7 -9.6 2 -9.6 -0.5 0 -3.5 1.5 -6.8 3.3 l-6 3.2 0.1 5.3 c0.1 2.8 -0.1 5.2 -0.5 5.2 -1.2 0 -12.6 -22.8 -11.8 -23.6 0.4 -0.4 2 0.5 3.6 2 3.5 3.4 3.5 3.4 19.2 -4.5 14.4 -7.2 15.1 -7.8 14.2 -13.1 -1 -6.6 1.2 -3.9 7.8 9.6 8.4 17 8.2 22.7 -0.8 25.7 -2.8 0.9 -4 0.8 -7.3 -0.9 l-4 -1.9 -3 4.6 c-4.1 6.4 -6.1 12.6 -6.2 18.9 -0.1 5.7 -0.8 6.4 -3 3z m21.6 -33.9 c2 -1.5 2.6 -2.9 2.6 -5.7 0 -6.7 -0.9 -6.9 -9.4 -2.6 -4.2 2.1 -7.6 4.2 -7.6 4.6 0 0.3 1.4 1.8 3.1 3.2 3.7 3.1 7.7 3.3 11.3 0.5z"/>
  <path d="M954.2 814.9 c-11.8 -6 -15.4 -20.4 -8.7 -34.2 1.5 -3 4.5 -7.2 6.6 -9.3 l3.9 -3.8 5.6 2.7 c3 1.5 5.2 3.2 4.9 3.7 -0.3 0.6 -2.7 1 -5.3 1 -8.6 0 -14.5 6 -14.5 14.7 0 9.8 10.6 18 22.3 17.1 6.7 -0.5 10.1 -2.4 13.8 -7.8 3 -4.4 2.5 -6 -2.3 -8.7 -5.2 -3 -7.3 -2.9 -10.7 0.4 -1.5 1.4 -3 2.4 -3.3 2.1 -0.7 -0.7 8.7 -19.8 9.7 -19.8 0.3 0 0.8 1.2 1 2.8 0.2 2.1 1.4 3.3 5.3 5.4 4.2 2.3 5.1 2.5 5.8 1.2 1.6 -2.9 2.4 -0.3 1.5 5.3 -1.1 7 -4.7 16.1 -7.9 20.1 -1.3 1.6 -4.2 4.2 -6.4 5.8 -5.4 3.9 -15 4.5 -21.3 1.3z"/>
  <path d="M196.2 761.9 c-1.8 -5.6 -3 -10.4 -2.7 -10.7 0.3 -0.3 1.6 0.5 2.9 1.7 l2.5 2.3 3.4 -2 c1.8 -1.2 4.1 -3 5.1 -4.1 1.7 -1.9 1.7 -2.2 -0.1 -7.8 l-2 -5.8 -4.6 -0.3 c-6.6 -0.4 -9 1.1 -8.5 5.4 0.8 6.5 -1.8 3.5 -4.7 -5.6 -2.9 -9.2 -2.8 -12.3 0.4 -8.1 1.6 2.1 3 2.5 16.5 3.7 8.1 0.7 17.1 1.4 19.9 1.5 5.3 0.3 11.6 2.6 11.7 4.4 0 0.6 -7.4 7 -16.5 14.3 -12.2 9.8 -16.6 14 -17.1 16 -1.7 7.7 -2.5 7 -6.2 -4.9z m22.4 -21.6 c2.4 -2.1 4.4 -4.1 4.4 -4.5 0 -0.4 -3 -0.8 -6.6 -0.8 -5.9 0 -6.5 0.2 -5.9 1.8 0.3 0.9 0.9 2.9 1.2 4.5 0.3 1.5 1 2.7 1.5 2.7 0.5 0 2.9 -1.7 5.4 -3.7z"/>
  <path d="M998.6 763.6 l0.7 -4.6 -5.7 -2.6 c-5.3 -2.4 -6.2 -2.5 -15.4 -1.9 -11.6 0.9 -14.8 1.7 -17.9 4.6 -1.2 1.3 -2.6 2 -2.9 1.6 -0.3 -0.3 1.1 -5.1 3.2 -10.6 3.7 -9.6 4.8 -10.9 5.6 -6.7 0.4 2.6 3.1 3.2 11.8 2.6 l7.4 -0.5 -5.6 -5.7 c-5.9 -6 -8 -6.9 -10.9 -4.2 -2.9 2.6 -2.8 0.3 0.5 -8.4 3.1 -8.4 5.3 -10.2 4.8 -4.1 -0.3 3.9 0.9 6 8.8 15.3 4.2 4.9 6.7 6.9 10.8 8.5 7.5 2.9 9.9 2.7 12 -0.9 1.8 -3.1 3.2 -3.9 3.1 -1.7 0 0.6 -1.9 6.1 -4.3 12.1 -4.7 12 -7 14.8 -6 7.2z"/>
  <path d="M228.8 589.9 c-1.2 -0.7 -1.8 -2.2 -1.8 -4.5 0 -4.7 -1.4 -7 -5.2 -9 -8 -4.1 -54.2 -20.4 -57.9 -20.4 -3.7 0 -4.2 0.4 -7.1 5 -2.9 4.7 -5 6.1 -6.2 4.2 -0.3 -0.5 1.1 -7.7 3 -16.2 1.9 -8.4 3.4 -15.4 3.4 -15.5 0 -0.2 2 0.5 4.4 1.3 4.3 1.6 5 1.5 26.8 -2.7 12.2 -2.3 24.4 -4.7 27.1 -5.3 l4.8 -1 -21.5 -15.3 c-25 -17.9 -24.4 -17.5 -29.1 -17.5 -3.3 0 -3.7 -0.2 -3.2 -2.2 0.3 -1.3 2 -8.9 3.8 -17 2.7 -12.5 3.5 -14.8 5.1 -14.8 1.3 0 1.8 0.8 1.8 2.8 0 5.6 2 10.1 5.1 11.8 3.3 1.6 52.8 10.4 59 10.4 4.2 0 8.7 -3.7 10.9 -8.9 1.2 -3.1 5 -4.5 5 -1.8 -0.1 2 -9.7 44.7 -10.2 45.3 -0.3 0.2 -1.2 0.2 -2.1 -0.2 -1.1 -0.4 -1.5 -1.4 -1.1 -3.2 0.8 -4.4 -0.9 -10.4 -3.7 -12.4 -1.8 -1.4 -9.6 -3.1 -28.5 -6.2 -14.2 -2.4 -26 -4.2 -26.2 -4.1 -0.1 0.1 13.1 9.6 29.5 21.2 16.3 11.5 29.8 21.3 30 21.8 0.8 2.8 -3.3 3.9 -35.5 9.7 -18.8 3.4 -33.6 6.5 -32.9 6.9 3.5 1.8 44.2 12.9 47.5 12.9 4.7 0 6.4 -1.3 9.2 -6.7 1.4 -2.8 2.9 -4.3 4.1 -4.3 1 0 1.9 0.3 1.9 0.8 0.1 1.6 -7.4 34.7 -7.9 35.4 -0.3 0.4 -1.4 0.2 -2.3 -0.3z"/>
  <path d="M1046.1 587.7 c-1.8 -5.2 -7 -10.8 -12.5 -13.2 -2.8 -1.2 -12.1 -4.5 -20.6 -7.3 l-15.5 -5.1 -10.1 1.9 c-11 1.9 -16.8 4.2 -18 6.8 -0.4 0.9 -1 4.6 -1.3 8.2 -0.5 4.9 -1 6.5 -2.1 6.5 -1.2 0 -2.4 -5.3 -5.7 -24.5 -2.3 -13.5 -4.2 -25.1 -4.3 -25.7 0 -0.7 0.8 -1.3 1.8 -1.3 1.1 0 2.7 2.2 4.8 6.9 2.8 6.2 3.5 7 6.5 7.6 1.9 0.3 7.7 0 13 -0.8 l9.5 -1.4 13 -9.3 c25 -17.9 26.5 -19.4 28 -28.9 0.5 -3.1 1.1 -4.1 2.5 -4.1 1.1 0 1.9 0.3 1.9 0.6 0 1 6.1 36.8 6.6 39 0.4 1.6 0 2.3 -1.5 2.7 -1.6 0.4 -2.4 -0.3 -3.7 -3.4 -2.2 -4.8 -3.1 -5.2 -8.1 -2.9 -5.7 2.5 -26.5 17.3 -25.6 18.1 1.2 1.1 21.8 6.8 27.1 7.4 5.9 0.8 8.2 -0.8 9.1 -6.1 0.5 -2.9 1.1 -4 2.6 -4.2 1.9 -0.3 2.3 1 4.8 16.7 1.6 9.4 2.6 17.5 2.2 18.1 -1.2 2 -3.4 0.9 -4.4 -2.3z"/>
  <path d="M938.1 477.3 c-5 -13.4 -9.1 -24.8 -9.1 -25.3 0 -0.6 0.8 -1 1.8 -1 1 0 2.9 2.1 4.7 5.1 4.4 7.5 6.3 8.5 13.1 7 5.7 -1.3 58.3 -20.7 59.7 -22 1.2 -1.2 -6 -14.7 -9.3 -17.5 -2.9 -2.4 -10.5 -4.6 -16 -4.6 -2.2 0 -3 -0.5 -3 -1.8 0 -1.6 2.3 -2.5 13.4 -5.3 7.4 -1.8 13.8 -3.1 14.1 -2.7 0.4 0.4 0.2 2.1 -0.5 4 -1.1 3.1 -0.5 5 8 27.3 5 13.2 10.2 27 11.6 30.8 2 5.1 3.3 7.1 5.5 8.3 1.6 0.8 2.9 1.9 2.9 2.4 0 0.6 -5.6 3.8 -12.5 7.2 -9.8 4.9 -12.7 6 -13.7 5 -1 -1 -0.3 -2.1 2.9 -5.5 5.1 -5.3 7.3 -9.6 7.3 -14.3 0 -3.9 -2.7 -15.4 -3.9 -16.7 -0.9 -0.9 -54.6 19.3 -60.7 22.8 -2.4 1.4 -4.6 3.4 -4.9 4.6 -0.6 1.9 -0.1 8.3 1.1 13.5 0.4 1.5 0 2.3 -1.4 2.6 -1.7 0.5 -3 -2.2 -11.1 -23.9z"/>
  <path d="M257.5 469 c-0.3 -0.5 -0.1 -2.7 0.4 -4.7 2.1 -7.5 1.5 -10 -3.1 -13.4 -5.2 -3.8 -46.7 -24.3 -52.2 -25.8 -4.7 -1.2 -7.7 0.2 -11.6 5.5 -2.3 3.1 -4.8 4.2 -6.3 2.8 -0.3 -0.4 4.3 -10.5 10.3 -22.5 8.7 -17.4 11.3 -21.7 12.6 -21.2 1.2 0.4 1.4 1.4 1 3.7 -2.2 10.4 -2.1 11 2 14.5 5.9 4.9 49.2 26.2 54.6 26.8 4.3 0.5 4.6 0.4 9 -4.6 3.2 -3.5 5.1 -4.9 6.2 -4.5 0.9 0.3 1.6 0.8 1.6 1 0 0.2 -4.8 10.1 -10.7 21.9 -10 19.9 -12.2 23.2 -13.8 20.5z"/>
  <path d="M908.6 416.6 c-6.9 -11.4 -12.6 -21 -12.6 -21.5 0 -2.5 3 -1.4 7.2 2.5 2.9 2.8 5.7 4.4 7.2 4.4 1.4 0 5.8 -1.7 9.8 -3.8 12.4 -6.5 41.1 -24.8 44.8 -28.6 l3.4 -3.7 -1.7 -6.6 c-1.8 -7 -1.1 -10.2 1.7 -7.3 1.6 1.8 23.3 37.1 24.2 39.4 1.1 2.8 -2.4 3.1 -4.6 0.3 -3.4 -4.3 -8.6 -7 -12.1 -6.2 -2.8 0.6 -31.9 17.7 -43.6 25.5 -7.2 4.9 -11.3 9.1 -11.3 11.7 0 1.2 0.7 4.3 1.6 6.9 1.4 4.1 1.4 4.8 0.1 6.1 -1.2 1.3 -3 -1.2 -14.1 -19.1z"/>
  <path d="M288.2 411.2 c-1 -0.7 -0.5 -2.4 1.9 -7.5 1.9 -4.2 2.9 -7.6 2.5 -9 -0.8 -3.5 -6.3 -8.3 -31.1 -27.2 l-23 -17.5 -2.3 2.7 c-7.7 9.5 -9.1 18.6 -4.2 27.9 2.4 4.4 2.8 5.9 1.8 6.6 -0.7 0.4 -1.6 0.7 -1.9 0.5 -2 -0.8 -20 -18.7 -19.5 -19.5 0.3 -0.5 1.8 -1.2 3.4 -1.5 2.3 -0.5 6.6 -5.4 21.9 -25.5 10.5 -13.7 19.6 -25.9 20.3 -27.1 0.6 -1.3 0.9 -3.3 0.6 -4.6 -0.3 -1.3 -0.1 -2.7 0.5 -3 1 -0.7 24.9 13.2 24.9 14.4 -0.1 2.5 -1.8 2.9 -7 1.5 -3.1 -0.9 -7.2 -1.2 -9.4 -0.9 -4.8 0.7 -11 5 -15.5 10.5 -3.3 4.1 -3.3 4.2 -1.5 6 3.8 3.5 44.6 34.2 48.7 36.6 6 3.4 8.2 3.1 14.9 -2.2 5.2 -4 7.8 -4.9 7.8 -2.4 0 0.9 -30.8 41.4 -31.8 41.7 -0.4 0.2 -1.3 -0.1 -2 -0.5z"/>
  <path d="M884.2 379.5 c-10 -4.6 -20.8 -16.9 -24.7 -28.1 l-1.9 -5.1 7.5 -9.6 c4.1 -5.3 7.9 -9.6 8.5 -9.7 0.5 0 1.5 0.5 2.1 1.1 0.9 0.9 0.6 2.3 -1.1 5.8 -6.8 13.3 -5.1 27.8 3.9 34.6 6.1 4.7 14.8 3.3 18.9 -3.1 3.1 -4.7 3 -10.3 -0.4 -25.3 -3.8 -16.5 -3.7 -21.9 0.3 -28 1.5 -2.2 4.8 -5.3 7.4 -6.8 6.4 -3.7 16.3 -3.9 23.8 -0.3 9.6 4.6 20.5 18.1 20.9 25.9 0.1 2.4 -1.1 3.9 -7.9 9.4 -6.6 5.4 -8.2 6.4 -9.3 5.3 -1.1 -1.1 -0.7 -2.5 2.4 -8.1 4.3 -7.8 4.8 -13.2 1.8 -18.4 -5.1 -8.8 -17.5 -8.7 -22.1 0.3 -2.2 4.3 -1.9 11.3 1.1 24.5 2.9 12.7 3.2 17.4 1.4 23.5 -1.4 4.7 -7.5 11.1 -12.4 13.2 -5.3 2.2 -14.1 1.8 -20.2 -1.1z"/>
  <path d="M844.2 339.5 c-7.7 -6 -13.3 -12.9 -15.2 -18.9 -1.2 -3.8 -0.9 -23.1 0.6 -35.1 0.5 -4.7 0.4 -5.3 -2.9 -9 l-3.4 -3.9 -6.2 8.4 c-12 16.2 -12.6 19.4 -5.1 27.4 4 4.3 4.8 5.6 3.7 6.4 -1 0.9 -6 -2.3 -21.9 -14 -13.2 -9.7 -20.4 -15.6 -20.1 -16.5 0.7 -1.8 2.3 -1.6 7.4 0.7 6.1 2.7 7.4 2.5 12.4 -2.1 5 -4.6 30.6 -39.1 34.3 -46.1 l2.4 -4.7 -2.6 -4.5 c-1.4 -2.5 -3.6 -5.2 -4.8 -6.1 -2 -1.3 -2.1 -1.7 -0.8 -2.9 1.3 -1.3 3.7 0.1 18.5 11 28.3 20.8 34.4 27.3 34.5 36.7 0 7.4 -6 15.2 -13.6 17.7 -2 0.7 -6.2 1 -9.5 0.8 l-5.8 -0.4 -0.8 5.5 c-0.4 3.1 -0.8 11.2 -0.8 18.1 0.1 14.3 1.5 20.2 6.8 29.2 2.5 4 3.2 5.9 2.4 6.7 -1.7 1.7 -2 1.5 -9.5 -4.4z m4.5 -67.2 c5.3 -2.5 9.3 -8.6 9.3 -14.2 0 -2.7 -0.7 -5.7 -1.6 -7.1 -2 -3 -8.6 -10 -9.4 -10 -0.7 0 -19.9 26.2 -20.1 27.5 -0.1 0.5 1.8 2 4.1 3.2 5.2 2.8 12.7 3 17.7 0.6z"/>
  <path d="M385.9 303.6 c-7.4 -2.6 -10.2 -5.8 -25.9 -29.2 -11.5 -17.1 -16 -22.4 -19.1 -22.4 -1 0 -4.2 0.9 -7 2 -5.3 2 -6.9 1.9 -6.9 -0.4 0 -1.7 39.6 -28 40.9 -27.1 1.7 1 1.3 2.6 -1.2 4.5 -3.9 3.1 -6.1 8.2 -5.3 12.4 0.8 4.2 22.5 37.4 27.7 42.3 4.2 3.9 7.7 5.3 13.3 5.3 9.1 0 21.4 -6.8 25.5 -14.1 2 -3.5 2.3 -5.1 1.9 -10.3 -0.7 -7.5 -2.6 -11.2 -16.4 -30.6 -14.8 -21 -15.5 -21.5 -25.7 -17.6 -5.6 2.1 -6.6 2.2 -7.1 0.9 -0.3 -0.8 -0.6 -1.6 -0.6 -1.9 0 -0.2 7.1 -5.1 15.8 -10.9 13.7 -9.2 15.9 -10.3 16.9 -8.9 0.9 1.2 0.6 2.3 -1.3 5.2 -5 7.3 -5 7.1 10.7 32.8 12.6 20.6 14.2 24.1 14.2 32.1 0 8.6 -3.5 15.4 -11.6 23 -12.5 11.6 -28 16.8 -38.8 12.9z"/>
  <path d="M730.5 266.5 c-17.6 -7.4 -32.6 -13.7 -33.3 -14.2 -0.7 -0.4 -1.1 -1.5 -0.7 -2.4 0.5 -1.4 1.3 -1.5 4.3 -0.8 9.6 2.2 12.1 0.9 16.8 -9 5.6 -11.9 18.5 -44.3 19.3 -48.7 0.8 -4 0.6 -4.8 -1.6 -7.5 -1.4 -1.6 -3.8 -3.7 -5.4 -4.6 -2.9 -1.7 -4 -5.3 -1.7 -5.3 1.5 0 64.9 26 66.2 27.1 0.6 0.5 -0.2 3 -1.9 6.1 -3.2 5.9 -6.5 11.9 -7.2 13.1 -0.2 0.4 -1.3 0.2 -2.3 -0.3 -1.6 -0.9 -1.8 -1.5 -1 -3.6 3.4 -9 -1.3 -14.8 -18 -21.9 l-7.8 -3.3 -5.6 13.6 c-3.1 7.5 -5.6 14.2 -5.6 14.7 0 1.2 13 6.3 18.3 7.2 3 0.4 4.5 0 7.7 -2.1 2.2 -1.4 4 -3.1 4 -3.6 0 -1.2 1 -1.3 2.8 -0.2 1.9 1.3 -10 28.7 -12.5 28.7 -1.3 0 -1.8 -0.7 -1.6 -2.5 0.3 -5.2 -1.6 -9.8 -5 -11.7 -6.1 -3.6 -16.8 -7.6 -17.6 -6.7 -1.9 2.1 -8.5 20.2 -8.9 24.5 -0.4 4.2 -0.1 4.8 2.9 7.4 8.8 7.3 20.8 9.1 29.2 4.2 2.5 -1.5 6.1 -4.5 8 -6.7 3.4 -4 5.1 -4.8 6.2 -3 1.3 2.1 -12.5 25.1 -15 24.9 -0.5 -0.1 -15.4 -6.1 -33 -13.4z"/>
  <path d="M454 268.2 c0 -0.9 2.1 -3.3 4.8 -5.2 7 -5.2 6.9 -7.6 -1.3 -35 -9.4 -31.9 -11.4 -35 -22.3 -35 -4.1 0 -5.1 -0.3 -5.5 -2 -0.3 -1.2 0.1 -2.1 1.2 -2.4 0.9 -0.3 7 -2.1 13.7 -4.1 l12.1 -3.6 7.9 5.4 c9.9 6.8 61.4 37.8 61.4 37 0 -1.8 -14.2 -44 -15.3 -45.4 -2.2 -2.9 -5.5 -3.9 -12.7 -3.9 -6.2 0 -7.1 -0.2 -6.8 -1.7 0.4 -2.4 34.8 -12.9 36 -11 1.2 1.8 1 2 -2.7 4.4 -6.4 4.2 -6.2 5.8 7.1 50.4 l8.7 29.1 -2.2 2.1 c-2 2.1 -2.3 2.1 -4.9 0.6 -7.7 -4.6 -48.5 -28.6 -60.7 -35.7 -7.7 -4.4 -14.1 -7.9 -14.3 -7.7 -0.5 0.5 12.8 40.5 14.9 44.7 2.5 4.9 4.4 5.8 12.8 5.8 6.2 0 7.1 0.2 7.1 1.8 0 1.6 -3.2 2.9 -18.8 7.5 -10.4 3.2 -19.2 5.7 -19.5 5.7 -0.4 0 -0.7 -0.8 -0.7 -1.8z"/>
  <path d="M650.1 249.7 c-2.2 -1.1 -3.6 -5.2 -13.1 -40.2 -5.9 -21.4 -11.3 -40.4 -12.2 -42 -0.9 -1.7 -3.5 -4.1 -5.8 -5.4 -2.7 -1.5 -4 -2.9 -3.8 -3.9 0.4 -2.1 0.2 -2.1 24.1 1.3 16.9 2.4 19.7 3.1 19.7 4.6 0 1.9 -1.9 2.9 -5.9 2.9 -4 0 -7.1 2.6 -7.1 6.1 0 2.9 11.2 49.4 12.8 53.3 0.7 1.6 2.3 -0.6 8.9 -12 9.8 -16.9 16.8 -30.8 17.7 -35.1 0.6 -2.7 0.3 -3.7 -1.7 -5.7 -1.4 -1.3 -4.3 -3 -6.6 -3.7 -2.9 -0.8 -4.1 -1.8 -4.1 -3.1 0 -2.3 0.9 -2.3 20.5 0.7 8.8 1.4 16.5 2.5 17.2 2.5 0.6 0 0.9 0.8 0.6 1.8 -0.3 1.1 -2.1 2.3 -4.7 3 -8.5 2.2 -8.9 2.7 -35.2 45.8 -9.7 15.9 -17.9 29.2 -18.2 29.6 -0.4 0.4 -1.8 0.2 -3.1 -0.5z"/>
  <path d="M554 242.3 c0 -1.5 1.3 -2.3 5.3 -3.6 8.2 -2.6 8.9 -3.4 9.4 -11.3 0.6 -8.3 -1.4 -49.3 -2.7 -54.9 -1.1 -5.1 -3.6 -7.1 -10.5 -8.5 -4.2 -0.9 -5.5 -1.6 -5.5 -2.9 0 -1.6 1.4 -1.9 13.8 -2.5 7.5 -0.3 18.5 -0.9 24.5 -1.2 10.3 -0.6 10.7 -0.6 10.7 1.4 0 1.6 -1.1 2.4 -5.4 3.6 -6.8 2 -8.3 3.5 -9.2 9.1 -0.7 5.3 1.3 51.2 2.6 56.8 1.2 5.5 3.3 7.3 10 8.6 4.7 0.9 6 1.6 6 3 0 1.6 -1.4 1.9 -13.7 2.5 -7.6 0.3 -18.6 0.9 -24.5 1.2 -10.2 0.6 -10.8 0.6 -10.8 -1.3z"/>
 </g>
 <g fill="#b38e31">
  <path d="M578.5 1099.4 c-41.3 -2.5 -71.7 -7.1 -107 -16.4 -117.9 -30.8 -221.8 -105.9 -289.9 -209.8 -45.6 -69.4 -71.7 -145.2 -79.7 -231.2 -1.6 -17.4 -1.6 -66.6 0 -84 9 -97.1 42.1 -183.5 99.3 -259.2 26.6 -35.2 62.4 -71.1 97.7 -97.7 75.6 -57.1 162 -90.2 259.1 -99.2 17.4 -1.6 66.6 -1.6 84 0 97.1 9 183.5 42.1 259.1 99.2 35.3 26.6 71.1 62.5 97.7 97.7 57.2 75.7 90.3 162.1 99.3 259.2 1.6 17.4 1.6 66.6 0 84 -9 97.1 -42.1 183.5 -99.3 259.2 -26.5 35.2 -62.5 71.1 -97.7 97.7 -74.3 56.1 -160.7 89.7 -253.8 98.6 -15.4 1.5 -56.9 2.6 -68.8 1.9z m56.1 -24.4 c62.7 -5 118.3 -19.9 173.9 -46.9 48 -23.3 89.2 -52.8 128 -91.6 19.2 -19.2 28.8 -30.1 44.5 -51 79.6 -105.8 111.2 -240.3 87.4 -371.5 -8.3 -45.6 -23.4 -90.2 -44.4 -130.7 -77.6 -150 -223.1 -246 -391.5 -258.4 -20.1 -1.5 -64.9 -0.6 -84 1.6 -58.6 6.8 -111.3 22.4 -162 48 -76.5 38.6 -139.2 94.6 -185.7 166 -61.3 93.9 -87.2 207.1 -73.2 319.5 6.3 50.7 21.2 100.7 43.8 147.5 17.2 35.6 38.4 68.2 65.7 101 10.7 12.9 41.5 43.7 54.4 54.4 55.5 46.2 115.1 77.8 180.5 95.9 33.6 9.2 57.2 13.3 97.5 16.5 9.9 0.8 53.4 0.6 65.1 -0.3z"/>
  <path d="M576.5 925.4 c-1.6 -0.2 -7.9 -0.9 -14 -1.5 -36.4 -3.6 -71.4 -14.1 -107.6 -32.1 -64 -31.9 -114.8 -82.4 -146 -145 -23.6 -47.3 -34.9 -94.9 -34.9 -146.8 0 -109.7 54.2 -210.7 145.5 -271.5 56.7 -37.8 121.2 -56.1 189.9 -54.2 49.8 1.4 91.8 12 136.6 34.3 64.5 32.2 114.1 82.3 146.5 147.9 22.7 45.9 33.5 92.2 33.5 143.5 0 51.2 -10.8 97.6 -33.5 143.5 -18.4 37.3 -41.7 68.9 -70.1 94.9 -25.9 23.7 -46.7 38.2 -75.4 52.6 -38.7 19.4 -76.2 30.1 -119 34 -10.5 0.9 -44.4 1.2 -51.5 0.4z m48.2 -8.5 c119 -9.7 221.8 -83.7 268.1 -192.9 45.5 -107.3 28.3 -231.5 -44.8 -323 -10.9 -13.5 -35.6 -38.3 -49 -48.9 -125.6 -100 -303.6 -92 -419.2 18.7 -87.8 84.2 -119.7 211.2 -82.2 327.4 30.9 95.6 107.8 172.8 202.8 203.7 40.5 13.2 83.5 18.4 124.3 15z"/>
  <path d="M195.3 683.1 c-4.6 -4.2 -4.8 -6.5 -1.5 -16.7 2.5 -7.5 2.7 -9 1.5 -9.7 -1.8 -1.1 -1.3 -1.7 -6.1 7.9 -5.3 10.6 -5.6 10.8 -14.4 10.5 l-3.8 -0.1 0 -5.8 c0 -7 0.4 -7.4 11 -12.7 8.9 -4.4 8.2 -3.9 7.5 -5.8 -0.6 -1.3 -1.8 -1.1 -9.3 1.4 -4.7 1.6 -9.5 2.9 -10.7 2.9 -1.1 0 -3.8 -1.8 -6 -4 l-3.9 -4 2 -2.7 c1.1 -1.5 3.2 -3.6 4.7 -4.7 l2.7 -2 9.7 3.2 c7.4 2.4 9.9 2.9 10.5 1.9 1.2 -1.9 1.1 -2 -6.7 -5.6 -10.1 -4.6 -11.7 -6.4 -11.3 -13.2 l0.3 -5.4 4.8 -0.3 c6.6 -0.4 8.5 1.1 13.2 10.7 3.6 7.4 5.5 9.5 6.9 7.3 0.3 -0.5 -0.9 -5.2 -2.6 -10.4 -3 -9.1 -3.1 -9.7 -1.5 -12.1 0.9 -1.4 3 -3.5 4.6 -4.6 l3 -2.1 3.5 3.1 c2 1.7 3.9 4.1 4.2 5.3 0.3 1.2 -0.8 6.4 -2.5 11.5 -2.4 7.7 -2.7 9.3 -1.5 9.8 1.9 0.7 1.4 1.3 6.3 -8.4 4.4 -8.8 6 -10.3 11.5 -10.3 5.9 0 6.6 0.7 6.6 6.4 0 6.3 -1.3 7.8 -11.7 13 -5.4 2.7 -7.1 4 -6.6 5.2 0.3 0.8 1.1 1.3 1.8 1.1 0.6 -0.3 4.8 -1.7 9.3 -3.1 9.5 -3 11.6 -2.6 15.7 2.9 l2.8 3.6 -2.4 2.7 c-5.6 6.2 -6.9 6.4 -18.2 2.6 -5.7 -1.9 -8.2 -2.3 -9 -1.5 -1.4 1.4 -1.7 1.1 7.9 5.9 4.4 2.2 8.6 4.7 9.3 5.5 0.7 0.9 1.1 3.6 0.9 6.9 l-0.3 5.3 -4.3 0.9 c-5.9 1.2 -8.6 -0.9 -13.9 -11 -2.3 -4.3 -4.4 -7.8 -4.7 -7.7 -0.4 0.1 -1.1 0.3 -1.6 0.5 -0.6 0.2 0.3 4.1 2 9.2 1.6 5 3 9.6 3 10.3 0 1.7 -6.9 9.3 -8.4 9.3 -0.6 0 -2.6 -1.3 -4.3 -2.9z"/>
  <path d="M996.3 683.1 c-1.8 -1.6 -3.5 -4 -3.8 -5.3 -0.3 -1.2 0.8 -6.3 2.4 -11.3 2.6 -8.4 2.6 -10.4 0.1 -10.5 -0.3 0 -2.3 3.6 -4.4 8 -5.2 10.8 -6 11.4 -14.8 11.1 l-3.8 -0.1 0 -5.8 c0 -7 0.4 -7.4 11 -12.7 8.9 -4.4 8.2 -3.9 7.5 -5.8 -0.6 -1.3 -1.8 -1.1 -9.3 1.4 -4.7 1.6 -9.5 2.9 -10.7 2.9 -1.1 0 -3.8 -1.8 -6 -4 l-3.9 -4 2 -2.7 c1.1 -1.5 3.2 -3.6 4.7 -4.7 l2.7 -2 9.7 3.2 c7.4 2.4 9.9 2.9 10.5 1.9 1.2 -2 1.1 -2 -6.6 -5.5 -10.1 -4.6 -11.8 -6.5 -11.4 -13.3 l0.3 -5.4 5.6 -0.3 c5.2 -0.3 5.9 0 7.8 2.4 1.2 1.5 3.6 5.8 5.3 9.6 2.9 6.3 4.9 8.1 6.2 5.9 0.3 -0.4 -0.8 -4.9 -2.5 -9.9 -3.5 -10.4 -3.1 -12.4 2.8 -17 l3.3 -2.4 4 4 c2.2 2.2 4 4.8 4 5.9 0 1.1 -1.3 5.9 -3 10.7 -2.5 7.4 -2.7 8.8 -1.4 9.3 1.9 0.7 1.4 1.3 6.3 -8.4 4.4 -8.8 6 -10.3 11.5 -10.3 5.9 0 6.6 0.7 6.6 6.4 0 6.3 -1.3 7.8 -11.7 13 -5.4 2.7 -7.1 4 -6.6 5.2 0.3 0.8 1.1 1.3 1.8 1.1 8.6 -3.4 17.8 -5.5 19.8 -4.8 2.3 0.9 7.7 6.5 7.7 8 0 0.4 -1.5 2.4 -3.4 4.4 -4.2 4.6 -6.6 4.7 -17.5 0.9 -6.7 -2.4 -8.1 -2.6 -8.6 -1.4 -0.7 1.8 -1.5 1.2 8.1 6 4.4 2.2 8.6 4.7 9.3 5.5 0.7 0.9 1.1 3.6 0.9 6.9 l-0.3 5.3 -4.3 0.9 c-5.9 1.2 -8.6 -0.9 -13.7 -10.8 -2.3 -4.3 -4.4 -7.8 -4.8 -7.8 -2.5 0.1 -2.4 1.5 0.3 9.5 1.6 4.9 3 9.5 3 10.3 0 1.7 -6.8 9.4 -8.4 9.4 -0.6 0 -2.6 -1.3 -4.3 -2.9z"/>
 </g>
 <g fill="#ffffff">
  <path d="M569.5 1075.3 c-40.3 -3.2 -63.9 -7.3 -97.5 -16.5 -65.4 -18.1 -125 -49.7 -180.5 -95.9 -12.9 -10.7 -43.7 -41.5 -54.4 -54.4 -27.3 -32.8 -48.5 -65.4 -65.7 -101 -40.2 -83.2 -55.3 -175.4 -43.8 -267.5 15.2 -122 78.7 -235.1 174.8 -311.7 63.9 -50.9 138.4 -84.3 217.7 -97.7 44.5 -7.6 95.9 -8.6 140.4 -3 50.1 6.4 107.2 23.7 151.8 46.1 91.3 45.7 164.3 117.9 211.7 209.6 57.2 110.5 67.9 244.1 29.2 363.2 -19.3 59.1 -48.7 112 -90.3 162 -10.7 12.9 -41.5 43.7 -54.4 54.4 -32.7 27.2 -64.9 48.2 -100 65.2 -55.6 27 -111.2 41.9 -173.9 46.9 -11.7 0.9 -55.2 1.1 -65.1 0.3z m26.8 -41 c1.6 -1 0.5 -2.3 -2 -2.3 -4 0 -8.8 -3.3 -11.9 -8 -2.6 -4 -2.7 -4.1 -0.8 -6.1 3.3 -3.7 9.9 -7.7 13.7 -8.4 4.9 -1 4.7 -2.3 -0.5 -2.9 -16.2 -2 -18.6 -1.7 -13.7 1.6 2.1 1.3 2.1 1.5 0.5 4.5 -2.5 5 -3.5 5 -8.2 -0.3 -2.4 -2.7 -4.3 -5.2 -4.4 -5.7 0 -0.4 1.2 -1.2 2.7 -1.8 4.4 -1.7 6.3 -3.9 6.3 -7.6 0 -8.8 -15 -12.4 -22.2 -5.3 -3.4 3.5 -3.7 7.6 -0.6 11.5 2.1 2.7 2.1 2.9 0.4 3.9 -7 4.1 -10.1 9.7 -8.9 15.7 0.3 1.6 2.3 4.5 4.6 6.5 3.7 3.4 4.3 3.6 9.3 3.2 3.7 -0.3 6.5 -1.3 9.1 -3.2 3.6 -2.5 3.9 -2.5 5 -0.9 3.2 4.7 4.1 5.5 7.3 6.3 3.2 0.8 12.5 0.3 14.3 -0.7z m53 -3 c5.8 -0.7 6.1 -1.9 0.7 -2.8 -2.4 -0.4 -4.4 -1.4 -5 -2.6 -0.8 -1.4 -4 -28 -4 -33.1 0 -0.5 2.3 -0.8 5 -0.8 5.2 0 7.7 1.5 10.6 6.6 2 3.3 2.6 0.8 1.4 -5.3 -1.7 -8.7 -1.6 -8.6 -4.2 -6.9 -2.6 1.6 -31.2 4.2 -35.3 3.2 l-2.5 -0.6 0 7.5 c0 8.1 0.9 9.4 2.8 4.1 1.7 -4.5 4.3 -6.7 9.1 -7.3 3.6 -0.5 4 -0.3 4.5 1.8 1 5.2 2.7 30 2.1 31.8 -0.3 1.1 -2.1 2.5 -4 3.1 -9.4 3.1 -0.6 3.7 18.8 1.3z m36.2 -5.8 c8.3 -1.9 16 -3.7 17.3 -4 2.2 -0.5 2.3 -1 2 -7.7 -0.3 -8 -2.2 -10.2 -3.2 -3.8 -1 6.2 -5.1 10.2 -11.2 10.7 -3.8 0.4 -5.3 0.1 -6.3 -1.1 -1.5 -1.8 -4.3 -12.5 -3.5 -13.7 0.2 -0.4 2.7 -1 5.5 -1.4 4.4 -0.6 5.3 -0.4 7.5 1.6 1.3 1.2 2.6 2 2.9 1.7 0.6 -0.5 -2.2 -14.8 -3 -15.7 -0.6 -0.5 -0.5 -0.6 -2.5 3.4 -1.1 2.2 -2.9 3.4 -6.5 4.7 -3.7 1.2 -5.2 1.3 -5.6 0.5 -1.2 -2.3 -3.2 -13.8 -2.5 -14.4 0.3 -0.4 3.9 -0.7 7.8 -0.7 6.9 -0.1 7.3 0 8.6 2.7 2 4.2 3.5 2.3 2.7 -3.7 -0.4 -2.8 -0.8 -5.2 -1 -5.4 -0.2 -0.3 -28.7 6 -33.7 7.4 -2.6 0.8 -2.2 2.4 0.6 2.4 4.8 0 6.4 2.7 9.6 16.7 3.8 16.7 3.8 17.8 0 19.8 -3.1 1.6 -4 3.5 -1.7 3.5 0.6 0 8 -1.6 16.2 -3.5z m-165 -16.5 c2.3 -9.6 4.5 -18.3 5 -19.3 0.4 -1 2 -2.1 3.6 -2.4 1.6 -0.3 2.9 -0.9 2.9 -1.3 0 -0.7 -16 -5 -18.4 -5 -1.7 0 -0.2 2 2.9 3.9 4.2 2.5 4.3 3.5 1.2 17.8 l-2.2 10.3 -7.9 -14.1 c-4.4 -7.8 -8.9 -16 -10 -18.2 -2 -3.9 -2.5 -4.2 -8.9 -5.6 -3.7 -0.8 -7 -1.1 -7.3 -0.8 -0.4 0.3 0.8 1.8 2.5 3.2 1.9 1.7 3.1 3.6 3.1 5.1 0 3.7 -5.8 27.5 -7.1 29 -0.6 0.8 -2.6 1.6 -4.5 2 -1.9 0.3 -3.4 1 -3.4 1.4 0 0.7 17 5 19.8 5 2.1 0 1.3 -1.4 -2.1 -3.5 -2.1 -1.3 -3.3 -3 -3.5 -4.8 -0.3 -2.4 3.3 -22.5 4.2 -23.4 0.2 -0.2 5.4 8.5 11.6 19.2 7.8 13.4 11.8 19.5 12.9 19.3 1 -0.2 2.7 -5.3 5.6 -17.8z m218.6 3.1 c2.8 -1.1 6.6 -3 8.5 -4.3 3.3 -2.3 3.4 -2.4 3.4 -9.5 0 -5.5 -0.3 -7.3 -1.4 -7.3 -0.8 0 -1.5 1.5 -1.9 4 -0.9 6.9 -3.8 11.3 -9 13.4 -4 1.7 -5.2 1.8 -8.7 0.7 -6 -1.8 -11.6 -7.8 -13.6 -14.7 -3.7 -12.7 2.2 -22.4 13.7 -22.4 3.5 0 4.7 0.6 8.2 4 2.2 2.3 4.4 3.7 4.8 3.3 0.4 -0.4 -0.2 -3.3 -1.4 -6.3 l-2.3 -5.5 -5.4 0.1 c-11 0.3 -22.2 6.9 -26.3 15.6 -5.2 11 1 26.5 12 29.8 5.1 1.5 14.1 1.1 19.4 -0.9z m-273.1 -3.1 c0 -0.5 -0.7 -1.3 -1.5 -1.7 -1.2 -0.7 -1.1 -1.6 1 -6.1 2 -4.3 2.8 -5.2 5 -5.2 1.5 0 2.5 -0.5 2.3 -1.1 -0.5 -1.4 -19.8 -9.2 -20.7 -8.4 -0.3 0.4 0.9 1.9 2.8 3.4 3 2.5 3.3 3.2 2.7 6.2 -0.3 1.9 -1.5 4.8 -2.6 6.6 -1.8 3 -2.1 3.2 -5.1 2.1 -7.4 -2.6 -12.7 -11.7 -11.6 -20 1.9 -14.3 14.6 -22.3 25.1 -15.9 4.5 2.8 6.6 6.7 6.6 12.1 0 5.7 2.1 5.1 4.7 -1.5 l2.1 -5.6 -4.9 -3.9 c-15.3 -12 -36 -9 -42.3 6.2 -2 4.6 -2 11.8 -0.2 16.2 2 4.9 7.1 10.2 12 12.6 7.6 3.6 24.6 6.4 24.6 4z m306.3 -10.4 c5.9 -2.7 10.4 -5.3 10.1 -5.8 -0.4 -0.5 -1.7 -0.7 -3.1 -0.3 -4.2 1 -6 -0.3 -9.2 -7.2 -1.8 -3.6 -3 -6.7 -2.8 -6.9 0.2 -0.2 4.6 -2.4 9.8 -4.8 l9.4 -4.4 2.7 5.1 c3.5 6.8 3.6 11.1 0.2 13.3 -1.4 1 -2.1 2.1 -1.6 2.6 0.4 0.4 5.7 -1.5 12 -4.4 10.8 -5 13.4 -7.6 6.6 -6.5 -4.4 0.7 -5.5 -0.7 -12.8 -16.7 -6 -13 -6.3 -15.6 -2.5 -17.6 2 -1.1 2.6 -3 0.9 -3 -2.1 0 -22.3 10 -21.6 10.7 0.4 0.4 2.4 0.6 4.6 0.4 3.8 -0.2 3.9 -0.2 7 5.8 l3.1 6.1 -9.7 4.5 c-5.3 2.5 -9.9 4.5 -10.3 4.5 -0.7 0 -5.1 -10.4 -5.1 -12.1 0 -0.5 1.2 -2.1 2.7 -3.5 4.6 -4.3 1.6 -3.9 -9.4 1.2 -11.9 5.5 -13.9 7.4 -6.9 6.7 l4.5 -0.5 6.2 12.8 c7.5 15.6 8.2 19.3 4.5 21.8 -1.5 0.9 -2.4 2.1 -2 2.7 0.3 0.6 0.9 0.9 1.3 0.7 0.5 -0.2 5.6 -2.5 11.4 -5.2z m-354.9 -5.4 c0.3 -0.5 -0.6 -1.9 -1.9 -3 -1.4 -1.2 -2.5 -3.1 -2.5 -4.2 0 -2.3 9.9 -21.6 13.6 -26.7 2.1 -2.8 2.7 -3 5.9 -2.3 1.9 0.4 3.7 0.4 4 0 0.5 -0.9 -2.1 -2.5 -14.7 -9.3 -7.1 -3.8 -9.5 -3.5 -5.3 0.7 1.4 1.4 2.5 3 2.5 3.7 0 1.8 -10.8 22.9 -13.7 26.7 -2.3 3.1 -2.8 3.3 -6.5 2.7 -6.4 -1.1 -4.3 1 6.7 7 10.9 5.8 11.1 5.9 11.9 4.7z m409.2 -22.7 c8.7 -5.7 10.2 -8.1 3.8 -6.3 -2 0.5 -4.2 0.7 -4.9 0.5 -1.6 -0.7 -14.9 -19.7 -14.1 -20.4 0.3 -0.3 10 1.8 21.6 4.7 15.3 3.8 21.4 5 22.2 4.2 0.8 -0.8 -0.9 -4.2 -6.2 -12.4 -12 -18.5 -13.5 -21.6 -12.2 -25.1 0.7 -1.7 1 -3.2 0.8 -3.4 -0.6 -0.6 -16.6 9.8 -16.6 10.8 0 1.2 0.5 1.1 5.1 -0.2 3.1 -1 4.2 -0.9 5.5 0.2 1.9 1.6 13.7 18.9 13.2 19.4 -0.4 0.4 -28.4 -6.9 -34.6 -9 l-4.4 -1.4 -6 4 c-3.3 2.3 -5.7 4.4 -5.3 4.7 0.3 0.3 2.3 0.5 4.3 0.3 4.6 -0.3 5.6 0.7 14.6 14.5 6.7 10.3 7.9 14.1 5.1 16.4 -1.4 1.2 -2.1 4 -1 4 0.3 0 4.4 -2.5 9.1 -5.5z m-435.6 1.6 c1.4 -1 3.1 -3.6 3.9 -5.8 1.4 -3.8 1.3 -4.2 -2.7 -13 -4.7 -10.1 -5.1 -12.4 -2.2 -15.3 2.6 -2.6 6 -2.5 8.9 0.1 1.9 1.8 2.2 2.9 1.8 6.3 -0.2 2.3 -0.6 4.7 -0.8 5.5 -0.9 3.2 1.8 1.7 4.8 -2.7 l3.2 -4.6 -2.3 -3.1 c-5.9 -7.6 -17.4 -10.1 -23.5 -4.9 -5 4.2 -5 8 -0.2 18 4.6 9.7 5 12.1 2.1 15.2 -6.1 6.5 -15.1 -2.4 -13.6 -13.4 0.8 -6.3 -1.5 -5.8 -4.2 0.9 -1.2 2.9 -2.2 5.7 -2.2 6.4 0 0.6 2.5 3.4 5.5 6.1 7.7 7.1 15.3 8.6 21.5 4.3z m-32.9 -18.2 c2.7 -2.2 4.9 -4.7 4.9 -5.5 0 -1.8 0.1 -1.8 -5.4 0.7 -3.2 1.4 -5.7 1.8 -7.7 1.4 -3.4 -0.8 -9.9 -6.5 -9.9 -8.7 0 -0.9 2 -4.1 4.4 -7.3 l4.4 -5.6 4.2 3.7 c3.4 3 4.1 4.3 3.9 6.8 -0.2 1.7 0 3.3 0.4 3.6 1 0.7 10.8 -11 10.1 -12.1 -0.3 -0.5 -1.3 -0.5 -2.4 0.1 -3.2 1.7 -5.5 1.1 -9.5 -2.3 l-3.9 -3.4 4.8 -5.6 c5.4 -6.3 5.7 -6.3 11.4 -0.4 3.5 3.6 4 5.4 2.7 10 -0.4 1.5 -0.3 2.7 0.2 2.7 1.1 0 8.9 -7.8 8.2 -8.3 -0.2 -0.2 -6.6 -5.4 -14.2 -11.5 -15.6 -12.6 -18.7 -14.2 -13.6 -7.1 l2.1 2.9 -2.2 3.7 c-3.2 5.5 -16.2 20.9 -18.7 22.4 -1.8 0.9 -2.8 0.9 -5.3 -0.1 -2.6 -1.1 -5.3 -0.8 -3.9 0.4 4.5 3.8 29.3 23.6 29.7 23.6 0.2 0 2.6 -1.8 5.3 -4.1z m517.9 -20 c6.1 -1.9 13.1 -7.8 16.3 -13.9 5.6 -10.6 2.4 -22 -8 -29.4 -8.6 -6 -20.9 -4 -29.6 4.8 -4.9 4.8 -6.8 8.7 -7.4 15.2 -0.5 4.5 -0.1 6.2 2.1 10.8 5.4 11.1 15.5 15.8 26.6 12.5z m-248 -8.9 c65.3 -6 127 -30.8 176.4 -70.9 38 -30.8 66.3 -66.4 88.1 -110.6 22.7 -45.9 33.5 -92.3 33.5 -143.5 0 -51.3 -10.8 -97.6 -33.5 -143.5 -32.4 -65.6 -82 -115.7 -146.5 -147.9 -44.8 -22.3 -86.8 -32.9 -136.6 -34.3 -23.8 -0.7 -42.2 0.5 -64 4.2 -99.7 16.8 -187.1 80.1 -233.9 169.5 -9.4 18.1 -16.1 33.8 -21.4 50.3 -23.8 73.9 -21.3 151.2 7 222.4 29.8 75 85.1 134.9 157.8 171.1 36.2 18 71.2 28.5 107.6 32.1 6.1 0.6 12.4 1.3 14 1.5 7.1 0.8 41 0.5 51.5 -0.4z m-304.7 -5.1 c4.4 -1.2 11.1 -6.8 13.4 -11.2 2.3 -4.4 1.9 -11.8 -0.8 -17.4 -1.4 -2.9 -6.6 -9.2 -13 -15.8 -10.1 -10.4 -14.4 -13 -10.6 -6.6 0.9 1.6 1.7 3.4 1.7 4 0 1.6 -17 20 -20.9 22.6 -3.2 2.3 -3.5 2.3 -6.7 0.7 -1.9 -0.8 -3.6 -1.3 -3.9 -1 -0.7 0.6 16.1 17.1 20.8 20.5 6.8 4.8 13.1 6.1 20 4.2z m598.5 -28.3 l12 -14.3 -3.9 -5.9 c-2.1 -3.2 -4 -6.3 -4.2 -6.8 -0.2 -0.5 -0.8 -0.6 -1.5 -0.3 -0.8 0.6 -0.7 1.8 0.4 4.9 1.8 5.3 1.8 9.1 -0.2 13.1 -2 3.9 -5.4 7.7 -6.9 7.7 -1.1 0 -23.4 -18.3 -24.7 -20.4 -1.1 -1.7 -0.9 -6.1 0.3 -7.3 0.6 -0.6 0.8 -1.7 0.4 -2.3 -0.5 -0.9 -1.4 -0.4 -2.9 1.3 -1.1 1.4 -4.7 5.8 -8 9.7 -3.2 3.9 -5.6 7.3 -5.2 7.7 0.3 0.3 2.1 -0.2 4 -1.2 3.3 -1.8 3.4 -1.8 6.7 0.5 5.4 3.8 21.7 17.9 22.2 19.3 0.2 0.6 -0.1 2.6 -0.8 4.4 -1.1 2.6 -1.1 4.3 0 4.3 0.1 0 5.6 -6.5 12.3 -14.4z m-654.8 -16.2 c1.6 -1.9 3 -4.5 3 -5.7 0 -3.3 -2.8 -6.7 -5.4 -6.7 -3.6 0 -4.9 2.2 -3.7 6.4 1.5 5.7 -2.5 8.2 -9.3 5.6 -1.7 -0.6 -2.7 -0.6 -3.2 0.1 -0.9 1.5 0 2.1 5.2 3.4 6.5 1.6 9.9 0.8 13.4 -3.1z m678.5 -16.3 c7.9 -3.6 15.5 -15.1 15.5 -23.5 0 -12.1 -10.6 -22.6 -22.6 -22.6 -6.5 0.1 -12 2.7 -17.1 8.3 -5.3 5.8 -7.3 10.5 -7.3 17.5 0 9.3 4.3 15.8 13.5 20.6 4.1 2.1 13 2 18 -0.3z m-695.5 -5.5 c0 -0.2 -0.7 -2.1 -1.6 -4.2 l-1.6 -3.9 4 -3.5 c2.2 -1.9 8.7 -6.8 14.6 -10.8 l10.6 -7.3 2 3.3 c2.4 4 2.5 7.8 0.4 11.9 -2.8 5.5 -0.5 5 6.5 -1.4 3.9 -3.5 4.6 -5.7 1.8 -5.7 -2 0 -20.8 -27.6 -20.1 -29.4 0.3 -0.9 0.1 -1.6 -0.4 -1.6 -1.8 0 -13.4 7.1 -12.7 7.8 0.3 0.3 2.4 0.5 4.5 0.3 5.5 -0.4 7.4 0.5 10.3 4.3 l2.6 3.3 -6.2 4.3 c-16.9 11.8 -21.9 15 -23.2 15 -0.7 0 -2.8 -1.2 -4.5 -2.6 -6.7 -5.7 -4 -0.1 8.1 16.5 2.4 3.4 4.9 5.3 4.9 3.7z m-23.2 -37.8 c0.1 -6.3 2.1 -12.5 6.2 -18.9 l3 -4.6 4 1.9 c3.3 1.7 4.5 1.8 7.3 0.9 9 -3 9.2 -8.7 0.8 -25.7 -6.6 -13.5 -8.8 -16.2 -7.8 -9.6 0.9 5.3 0.2 5.9 -14.2 13.1 -15.7 7.9 -15.7 7.9 -19.2 4.5 -1.6 -1.5 -3.2 -2.4 -3.6 -2 -0.8 0.8 10.6 23.6 11.8 23.6 0.4 0 0.6 -2.4 0.5 -5.2 l-0.1 -5.3 6 -3.2 c3.3 -1.8 6.3 -3.3 6.8 -3.3 1.7 0 0.5 6 -2 9.6 -7.3 10.8 -8 18.6 -2.5 27.2 2.2 3.4 2.9 2.7 3 -3z m748.7 -2.2 c2.2 -1.6 5.1 -4.2 6.4 -5.8 3.2 -4 6.8 -13.1 7.9 -20.1 0.9 -5.6 0.1 -8.2 -1.5 -5.3 -0.7 1.3 -1.6 1.1 -5.8 -1.2 -3.9 -2.1 -5.1 -3.3 -5.3 -5.4 -0.2 -1.6 -0.7 -2.8 -1 -2.8 -1 0 -10.4 19.1 -9.7 19.8 0.3 0.3 1.8 -0.7 3.3 -2.1 3.4 -3.3 5.5 -3.4 10.7 -0.4 4.8 2.7 5.3 4.3 2.3 8.7 -3.7 5.4 -7.1 7.3 -13.8 7.8 -11.7 0.9 -22.3 -7.3 -22.3 -17.1 0 -8.7 5.9 -14.7 14.5 -14.7 2.6 0 5 -0.4 5.3 -1 0.3 -0.5 -1.9 -2.2 -4.9 -3.7 l-5.6 -2.7 -3.9 3.8 c-2.1 2.1 -5.1 6.3 -6.6 9.3 -6.7 13.8 -3.1 28.2 8.7 34.2 6.3 3.2 15.9 2.6 21.3 -1.3z m-774.1 -42.8 c0.3 -0.7 0.7 -2.5 1 -4 0.5 -2 4.9 -6.2 17.1 -16 9.1 -7.3 16.5 -13.7 16.5 -14.3 -0.1 -1.8 -6.4 -4.1 -11.7 -4.4 -2.8 -0.1 -11.8 -0.8 -19.9 -1.5 -13.5 -1.2 -14.9 -1.6 -16.5 -3.7 -3.2 -4.2 -3.3 -1.1 -0.4 8.1 2.9 9.1 5.5 12.1 4.7 5.6 -0.5 -4.3 1.9 -5.8 8.5 -5.4 l4.6 0.3 2 5.8 c1.8 5.6 1.8 5.9 0.1 7.8 -1 1.1 -3.3 2.9 -5.1 4.1 l-3.4 2 -2.5 -2.3 c-1.3 -1.2 -2.6 -2 -2.9 -1.7 -0.8 0.8 5.7 20.8 6.7 20.8 0.5 0 1 -0.6 1.2 -1.2z m803.2 -14.4 c2.4 -6 4.3 -11.5 4.3 -12.1 0.1 -2.2 -1.3 -1.4 -3.1 1.7 -2.1 3.6 -4.5 3.8 -12 0.9 -4.1 -1.6 -6.6 -3.6 -10.8 -8.5 -7.9 -9.3 -9.1 -11.4 -8.8 -15.3 0.5 -6.1 -1.7 -4.3 -4.8 4.1 -3.3 8.7 -3.4 11 -0.5 8.4 2.9 -2.7 5 -1.8 10.9 4.2 l5.6 5.7 -7.4 0.5 c-8.7 0.6 -11.4 0 -11.8 -2.6 -0.8 -4.2 -1.9 -2.9 -5.6 6.7 -2.1 5.5 -3.5 10.3 -3.2 10.6 0.3 0.4 1.7 -0.3 2.9 -1.6 3.1 -2.9 6.3 -3.7 17.9 -4.6 9.2 -0.6 10.1 -0.5 15.4 1.9 l5.7 2.6 -0.7 4.6 c-1 7.6 1.3 4.8 6 -7.2z m-800.2 -74.4 c2 -2.2 3.6 -4.6 3.6 -5.3 0 -0.7 -1.4 -5.3 -3 -10.3 -1.7 -5.1 -2.6 -9 -2 -9.2 0.5 -0.2 1.2 -0.4 1.6 -0.5 0.3 -0.1 2.4 3.4 4.7 7.7 5.3 10.1 8 12.2 13.9 11 l4.3 -0.9 0.3 -5.3 c0.2 -3.3 -0.2 -6 -0.9 -6.9 -0.7 -0.8 -4.9 -3.3 -9.3 -5.5 -9.6 -4.8 -9.3 -4.5 -7.9 -5.9 0.8 -0.8 3.3 -0.4 9 1.5 11.3 3.8 12.6 3.6 18.2 -2.6 l2.4 -2.7 -2.8 -3.6 c-4.1 -5.5 -6.2 -5.9 -15.7 -2.9 -4.5 1.4 -8.7 2.8 -9.3 3.1 -0.7 0.2 -1.5 -0.3 -1.8 -1.1 -0.5 -1.2 1.2 -2.5 6.6 -5.2 10.4 -5.2 11.7 -6.7 11.7 -13 0 -5.7 -0.7 -6.4 -6.6 -6.4 -5.5 0 -7.1 1.5 -11.5 10.3 -4.9 9.7 -4.4 9.1 -6.3 8.4 -1.2 -0.5 -0.9 -2.1 1.5 -9.8 1.7 -5.1 2.8 -10.3 2.5 -11.5 -0.3 -1.2 -2.2 -3.6 -4.2 -5.3 l-3.5 -3.1 -3 2.1 c-1.6 1.1 -3.7 3.2 -4.6 4.6 -1.6 2.4 -1.5 3 1.5 12.1 1.7 5.2 2.9 9.9 2.6 10.4 -1.4 2.2 -3.3 0.1 -6.9 -7.3 -4.7 -9.6 -6.6 -11.1 -13.2 -10.7 l-4.8 0.3 -0.3 5.4 c-0.4 6.8 1.2 8.6 11.3 13.2 7.8 3.6 7.9 3.7 6.7 5.6 -0.6 1 -3.1 0.5 -10.5 -1.9 l-9.7 -3.2 -2.7 2 c-1.5 1.1 -3.6 3.2 -4.7 4.7 l-2 2.7 3.9 4 c2.2 2.2 4.9 4 6 4 1.2 0 6 -1.3 10.7 -2.9 7.5 -2.5 8.7 -2.7 9.3 -1.4 0.7 1.9 1.4 1.4 -7.5 5.8 -10.6 5.3 -11 5.7 -11 12.7 l0 5.8 3.8 0.1 c8.8 0.3 9.1 0.1 14.4 -10.5 4.8 -9.6 4.3 -9 6.1 -7.9 1.2 0.7 1 2.2 -1.5 9.7 -1.8 5.4 -2.7 9.9 -2.3 11.4 0.6 2.6 6.2 8.2 8.1 8.2 0.6 0 2.8 -1.8 4.8 -4z m801 0 c2 -2.2 3.6 -4.6 3.6 -5.4 0 -0.8 -1.4 -5.4 -3 -10.3 -2.7 -8 -2.8 -9.4 -0.3 -9.5 0.4 0 2.5 3.5 4.8 7.8 5.1 9.9 7.8 12 13.7 10.8 l4.3 -0.9 0.3 -5.3 c0.2 -3.3 -0.2 -6 -0.9 -6.9 -0.7 -0.8 -4.9 -3.3 -9.3 -5.5 -9.6 -4.8 -8.8 -4.2 -8.1 -6 0.5 -1.2 1.9 -1 8.6 1.4 10.9 3.8 13.3 3.7 17.5 -0.9 1.9 -2 3.4 -4 3.4 -4.4 0 -1.5 -5.4 -7.1 -7.7 -8 -2 -0.7 -11.2 1.4 -19.8 4.8 -0.7 0.2 -1.5 -0.3 -1.8 -1.1 -0.5 -1.2 1.2 -2.5 6.6 -5.2 10.4 -5.2 11.7 -6.7 11.7 -13 0 -5.7 -0.7 -6.4 -6.6 -6.4 -5.5 0 -7.1 1.5 -11.5 10.3 -4.9 9.7 -4.4 9.1 -6.3 8.4 -1.3 -0.5 -1.1 -1.9 1.4 -9.3 1.7 -4.8 3 -9.6 3 -10.7 0 -1.1 -1.8 -3.7 -4 -5.9 l-4 -4 -3.3 2.4 c-5.9 4.6 -6.3 6.6 -2.8 17 1.7 5 2.8 9.5 2.5 9.9 -1.3 2.2 -3.3 0.4 -6.2 -5.9 -1.7 -3.8 -4.1 -8.1 -5.3 -9.6 -1.9 -2.4 -2.6 -2.7 -7.8 -2.4 l-5.6 0.3 -0.3 5.4 c-0.4 6.8 1.3 8.7 11.4 13.3 7.7 3.5 7.8 3.5 6.6 5.5 -0.6 1 -3.1 0.5 -10.5 -1.9 l-9.7 -3.2 -2.7 2 c-1.5 1.1 -3.6 3.2 -4.7 4.7 l-2 2.7 3.9 4 c2.2 2.2 4.9 4 6 4 1.2 0 6 -1.3 10.7 -2.9 7.5 -2.5 8.7 -2.7 9.3 -1.4 0.7 1.9 1.4 1.4 -7.5 5.8 -10.6 5.3 -11 5.7 -11 12.7 l0 5.8 3.8 0.1 c8.8 0.3 9.6 -0.3 14.8 -11.1 2.1 -4.4 4.1 -8 4.4 -8 2.5 0.1 2.5 2.1 -0.1 10.5 -1.6 5 -2.7 10.1 -2.4 11.3 0.6 2.6 6.2 8.2 8.1 8.2 0.6 0 2.8 -1.8 4.8 -4z m-770 -109.5 c2 -9.3 3.6 -17.3 3.6 -17.7 0 -0.5 -0.9 -0.8 -1.9 -0.8 -1.2 0 -2.7 1.5 -4.1 4.3 -2.8 5.4 -4.5 6.7 -9.2 6.7 -3.3 0 -44 -11.1 -47.5 -12.9 -0.7 -0.4 14.1 -3.5 32.9 -6.9 32.2 -5.8 36.3 -6.9 35.5 -9.7 -0.2 -0.5 -13.7 -10.3 -30 -21.8 -16.4 -11.6 -29.6 -21.1 -29.5 -21.2 0.2 -0.1 12 1.7 26.2 4.1 18.9 3.1 26.7 4.8 28.5 6.2 2.8 2 4.5 8 3.7 12.4 -0.4 1.8 0 2.8 1.1 3.2 0.9 0.4 1.8 0.4 2.1 0.2 0.5 -0.6 10.1 -43.3 10.2 -45.3 0 -2.7 -3.8 -1.3 -5 1.8 -2.2 5.2 -6.7 8.9 -10.9 8.9 -6.2 0 -55.7 -8.8 -59 -10.4 -3.1 -1.7 -5.1 -6.2 -5.1 -11.8 0 -2 -0.5 -2.8 -1.8 -2.8 -1.6 0 -2.4 2.3 -5.1 14.8 -1.8 8.1 -3.5 15.7 -3.8 17 -0.5 2 -0.1 2.2 3.2 2.2 4.7 0 4.1 -0.4 29.1 17.5 l21.5 15.3 -4.8 1 c-2.7 0.6 -14.9 3 -27.1 5.3 -21.8 4.2 -22.5 4.3 -26.8 2.7 -2.4 -0.8 -4.4 -1.5 -4.4 -1.3 0 0.1 -1.5 7.1 -3.4 15.5 -1.9 8.5 -3.3 15.7 -3 16.2 1.2 1.9 3.3 0.5 6.2 -4.2 2.9 -4.6 3.4 -5 7.1 -5 3.7 0 49.9 16.3 57.9 20.4 3.8 2 5.2 4.3 5.2 9 0 3.4 2.6 6.5 4.1 4.8 0.3 -0.4 2.2 -8.3 4.3 -17.7z m815.1 17.5 c0.4 -0.6 -0.6 -8.7 -2.2 -18.1 -2.5 -15.7 -2.9 -17 -4.8 -16.7 -1.5 0.2 -2.1 1.3 -2.6 4.2 -0.9 5.3 -3.2 6.9 -9.1 6.1 -5.3 -0.6 -25.9 -6.3 -27.1 -7.4 -0.9 -0.8 19.9 -15.6 25.6 -18.1 5 -2.3 5.9 -1.9 8.1 2.9 1.3 3.1 2.1 3.8 3.7 3.4 1.5 -0.4 1.9 -1.1 1.5 -2.7 -0.5 -2.2 -6.6 -38 -6.6 -39 0 -0.3 -0.8 -0.6 -1.9 -0.6 -1.4 0 -2 1 -2.5 4.1 -1.5 9.5 -3 11 -28 28.9 l-13 9.3 -9.5 1.4 c-5.3 0.8 -11.1 1.1 -13 0.8 -3 -0.6 -3.7 -1.4 -6.5 -7.6 -2.1 -4.7 -3.7 -6.9 -4.8 -6.9 -1 0 -1.8 0.6 -1.8 1.3 0.1 0.6 2 12.2 4.3 25.7 3.3 19.2 4.5 24.5 5.7 24.5 1.1 0 1.6 -1.6 2.1 -6.5 0.3 -3.6 0.9 -7.3 1.3 -8.2 1.2 -2.6 7 -4.9 18 -6.8 l10.1 -1.9 15.5 5.1 c8.5 2.8 17.8 6.1 20.6 7.3 5.5 2.4 10.7 8 12.5 13.2 1 3.2 3.2 4.3 4.4 2.3z m-99.9 -91.4 c-1.2 -5.2 -1.7 -11.6 -1.1 -13.5 0.3 -1.2 2.5 -3.2 4.9 -4.6 6.1 -3.5 59.8 -23.7 60.7 -22.8 1.2 1.3 3.9 12.8 3.9 16.7 0 4.7 -2.2 9 -7.3 14.3 -3.2 3.4 -3.9 4.5 -2.9 5.5 1 1 3.9 -0.1 13.7 -5 6.9 -3.4 12.5 -6.6 12.5 -7.2 0 -0.5 -1.3 -1.6 -2.9 -2.4 -2.2 -1.2 -3.5 -3.2 -5.5 -8.3 -1.4 -3.8 -6.6 -17.6 -11.6 -30.8 -8.5 -22.3 -9.1 -24.2 -8 -27.3 0.7 -1.9 0.9 -3.6 0.5 -4 -0.3 -0.4 -6.7 0.9 -14.1 2.7 -11.1 2.8 -13.4 3.7 -13.4 5.3 0 1.3 0.8 1.8 3 1.8 5.5 0 13.1 2.2 16 4.6 3.3 2.8 10.5 16.3 9.3 17.5 -1.4 1.3 -54 20.7 -59.7 22 -6.8 1.5 -8.7 0.5 -13.1 -7 -1.8 -3 -3.7 -5.1 -4.7 -5.1 -1 0 -1.8 0.4 -1.8 1 0 0.5 4.1 11.9 9.1 25.3 8.1 21.7 9.4 24.4 11.1 23.9 1.4 -0.3 1.8 -1.1 1.4 -2.6z m-679.3 -50.1 c5.9 -11.8 10.7 -21.7 10.7 -21.9 0 -0.2 -0.7 -0.7 -1.6 -1 -1.1 -0.4 -3 1 -6.2 4.5 -4.4 5 -4.7 5.1 -9 4.6 -5.4 -0.6 -48.7 -21.9 -54.6 -26.8 -4.1 -3.5 -4.2 -4.1 -2 -14.5 0.4 -2.3 0.2 -3.3 -1 -3.7 -1.3 -0.5 -3.9 3.8 -12.6 21.2 -6 12 -10.6 22.1 -10.3 22.5 1.5 1.4 4 0.3 6.3 -2.8 3.9 -5.3 6.9 -6.7 11.6 -5.5 5.5 1.5 47 22 52.2 25.8 4.6 3.4 5.2 5.9 3.1 13.4 -1 3.9 -0.6 5.7 1.4 5.7 0.7 0 6.1 -9.7 12 -21.5z m651.3 -18.9 c-3.6 -10.5 -2.9 -11.3 32.4 -32.6 9.8 -6 19.3 -11.1 20.9 -11.5 3.5 -0.8 8.7 1.9 12.1 6.2 2.2 2.8 5.7 2.5 4.6 -0.3 -0.9 -2.3 -22.6 -37.6 -24.2 -39.4 -2.8 -2.9 -3.5 0.3 -1.7 7.3 l1.7 6.6 -3.4 3.7 c-3.7 3.8 -32.4 22.1 -44.8 28.6 -4 2.1 -8.4 3.8 -9.8 3.8 -1.5 0 -4.3 -1.6 -7.2 -4.4 -4.2 -3.9 -7.2 -5 -7.2 -2.5 0 0.5 5.7 10.1 12.6 21.5 11.1 17.9 12.9 20.4 14.1 19.1 1.3 -1.3 1.3 -2 -0.1 -6.1z m-616.2 -38.5 c8.6 -11.2 15.6 -20.7 15.6 -21.1 0 -2.5 -2.6 -1.6 -7.8 2.4 -6.7 5.3 -8.9 5.6 -14.9 2.2 -4.1 -2.4 -44.9 -33.1 -48.7 -36.6 -1.8 -1.8 -1.8 -1.9 1.5 -6 4.5 -5.5 10.7 -9.8 15.5 -10.5 2.2 -0.3 6.3 0 9.4 0.9 5.2 1.4 6.9 1 7 -1.5 0 -1.2 -23.9 -15.1 -24.9 -14.4 -0.6 0.3 -0.8 1.7 -0.5 3 0.3 1.3 0 3.3 -0.6 4.6 -0.7 1.2 -9.8 13.4 -20.3 27.1 -15.3 20.1 -19.6 25 -21.9 25.5 -1.6 0.3 -3.1 1 -3.4 1.5 -0.5 0.8 17.5 18.7 19.5 19.5 0.3 0.2 1.2 -0.1 1.9 -0.5 1 -0.7 0.6 -2.2 -1.8 -6.6 -4.9 -9.3 -3.5 -18.4 4.2 -27.9 l2.3 -2.7 23 17.5 c24.8 18.9 30.3 23.7 31.1 27.2 0.4 1.4 -0.6 4.8 -2.5 9 -2.4 5.1 -2.9 6.8 -1.9 7.5 0.7 0.4 1.6 0.7 2 0.5 0.4 -0.1 7.7 -9.4 16.2 -20.6z m598 -10.5 c4.9 -2.1 11 -8.5 12.4 -13.2 1.8 -6.1 1.5 -10.8 -1.4 -23.5 -3 -13.2 -3.3 -20.2 -1.1 -24.5 4.6 -9 17 -9.1 22.1 -0.3 3 5.2 2.5 10.6 -1.8 18.4 -3.1 5.6 -3.5 7 -2.4 8.1 1.1 1.1 2.7 0.1 9.3 -5.3 6.8 -5.5 8 -7 7.9 -9.4 -0.4 -7.8 -11.3 -21.3 -20.9 -25.9 -7.5 -3.6 -17.4 -3.4 -23.8 0.3 -2.6 1.5 -5.9 4.6 -7.4 6.8 -4 6.1 -4.1 11.5 -0.3 28 3.4 15 3.5 20.6 0.4 25.3 -4.1 6.4 -12.8 7.8 -18.9 3.1 -9 -6.8 -10.7 -21.3 -3.9 -34.6 1.7 -3.5 2 -4.9 1.1 -5.8 -0.6 -0.6 -1.6 -1.1 -2.1 -1.1 -0.6 0.1 -4.4 4.4 -8.5 9.7 l-7.5 9.6 1.9 5.1 c3.9 11.2 14.7 23.5 24.7 28.1 6.1 2.9 14.9 3.3 20.2 1.1z m-50.7 -36.7 c0.8 -0.8 0.1 -2.7 -2.4 -6.7 -5.3 -9 -6.7 -14.9 -6.8 -29.2 0 -6.9 0.4 -15 0.8 -18.1 l0.8 -5.5 5.8 0.4 c3.3 0.2 7.5 -0.1 9.5 -0.8 7.6 -2.5 13.6 -10.3 13.6 -17.7 -0.1 -9.4 -6.2 -15.9 -34.5 -36.7 -14.8 -10.9 -17.2 -12.3 -18.5 -11 -1.3 1.2 -1.2 1.6 0.8 2.9 1.2 0.9 3.4 3.6 4.8 6.1 l2.6 4.5 -2.4 4.7 c-3.7 7 -29.3 41.5 -34.3 46.1 -5 4.6 -6.3 4.8 -12.4 2.1 -5.1 -2.3 -6.7 -2.5 -7.4 -0.7 -0.3 0.9 6.9 6.8 20.1 16.5 15.9 11.7 20.9 14.9 21.9 14 1.1 -0.8 0.3 -2.1 -3.7 -6.4 -7.5 -8 -6.9 -11.2 5.1 -27.4 l6.2 -8.4 3.4 3.9 c3.3 3.7 3.4 4.3 2.9 9 -1.5 12 -1.8 31.3 -0.6 35.1 1.9 6 7.5 12.9 15.2 18.9 7.5 5.9 7.8 6.1 9.5 4.4z m-451.2 -40.4 c8.2 -2.2 14.9 -6 22.2 -12.8 8.1 -7.6 11.6 -14.4 11.6 -23 0 -8 -1.6 -11.5 -14.2 -32.1 -15.7 -25.7 -15.7 -25.5 -10.7 -32.8 1.9 -2.9 2.2 -4 1.3 -5.2 -1 -1.4 -3.2 -0.3 -16.9 8.9 -8.7 5.8 -15.8 10.7 -15.8 10.9 0 0.3 0.3 1.1 0.6 1.9 0.5 1.3 1.5 1.2 7.1 -0.9 10.2 -3.9 10.9 -3.4 25.7 17.6 13.8 19.4 15.7 23.1 16.4 30.6 0.4 5.2 0.1 6.8 -1.9 10.3 -4.1 7.3 -16.4 14.1 -25.5 14.1 -5.6 0 -9.1 -1.4 -13.3 -5.3 -5.2 -4.9 -26.9 -38.1 -27.7 -42.3 -0.8 -4.2 1.4 -9.3 5.3 -12.4 2.5 -1.9 2.9 -3.5 1.2 -4.5 -1.3 -0.9 -40.9 25.4 -40.9 27.1 0 2.3 1.6 2.4 6.9 0.4 2.8 -1.1 6 -2 7 -2 3.1 0 7.6 5.3 19.1 22.4 15.7 23.4 18.5 26.6 25.9 29.2 4.8 1.8 9.5 1.7 16.6 -0.1z m365.9 -28.8 c4.7 -6.5 10.9 -18.5 10.1 -19.7 -1.1 -1.8 -2.8 -1 -6.2 3 -1.9 2.2 -5.5 5.2 -8 6.7 -8.4 4.9 -20.4 3.1 -29.2 -4.2 -3 -2.6 -3.3 -3.2 -2.9 -7.4 0.4 -4.3 7 -22.4 8.9 -24.5 0.8 -0.9 11.5 3.1 17.6 6.7 3.4 1.9 5.3 6.5 5 11.7 -0.2 1.8 0.3 2.5 1.6 2.5 2.5 0 14.4 -27.4 12.5 -28.7 -1.8 -1.1 -2.8 -1 -2.8 0.2 0 0.5 -1.8 2.2 -4 3.6 -3.2 2.1 -4.7 2.5 -7.7 2.1 -5.3 -0.9 -18.3 -6 -18.3 -7.2 0 -0.5 2.5 -7.2 5.6 -14.7 l5.6 -13.6 7.8 3.3 c16.7 7.1 21.4 12.9 18 21.9 -0.8 2.1 -0.6 2.7 1 3.6 1 0.5 2.1 0.7 2.3 0.3 0.7 -1.2 4 -7.2 7.2 -13.1 1.7 -3.1 2.5 -5.6 1.9 -6.1 -1.3 -1.1 -64.7 -27.1 -66.2 -27.1 -2.3 0 -1.2 3.6 1.7 5.3 1.6 0.9 4 3 5.4 4.6 2.2 2.7 2.4 3.5 1.6 7.5 -0.8 4.4 -13.7 36.8 -19.3 48.7 -4.7 9.9 -7.2 11.2 -16.8 9 -3 -0.7 -3.8 -0.6 -4.3 0.8 -0.4 0.9 0 2 0.7 2.4 1.9 1.2 65.1 27.5 66.3 27.6 0.6 0 2.7 -2.3 4.9 -5.2z m-294.2 -10.4 c15.6 -4.6 18.8 -5.9 18.8 -7.5 0 -1.6 -0.9 -1.8 -7.1 -1.8 -8.4 0 -10.3 -0.9 -12.8 -5.8 -2.1 -4.2 -15.4 -44.2 -14.9 -44.7 0.2 -0.2 6.6 3.3 14.3 7.7 12.2 7.1 53 31.1 60.7 35.7 2.6 1.5 2.9 1.5 4.9 -0.6 l2.2 -2.1 -8.7 -29.1 c-13.3 -44.6 -13.5 -46.2 -7.1 -50.4 3.7 -2.4 3.9 -2.6 2.7 -4.4 -1.2 -1.9 -35.6 8.6 -36 11 -0.3 1.5 0.6 1.7 6.8 1.7 7.2 0 10.5 1 12.7 3.9 1.1 1.4 15.3 43.6 15.3 45.4 0 0.8 -51.5 -30.2 -61.4 -37 l-7.9 -5.4 -12.1 3.6 c-6.7 2 -12.8 3.8 -13.7 4.1 -1.1 0.3 -1.5 1.2 -1.2 2.4 0.4 1.7 1.4 2 5.5 2 10.9 0 12.9 3.1 22.3 35 8.2 27.4 8.3 29.8 1.3 35 -2.7 1.9 -4.8 4.3 -4.8 5.2 0 1 0.3 1.8 0.7 1.8 0.3 0 9.1 -2.5 19.5 -5.7z m197.2 -43.7 c26.3 -43.1 26.7 -43.6 35.2 -45.8 2.6 -0.7 4.4 -1.9 4.7 -3 0.3 -1 0 -1.8 -0.6 -1.8 -0.7 0 -8.4 -1.1 -17.2 -2.5 -19.6 -3 -20.5 -3 -20.5 -0.7 0 1.3 1.2 2.3 4.1 3.1 2.3 0.7 5.2 2.4 6.6 3.7 2 2 2.3 3 1.7 5.7 -0.9 4.3 -7.9 18.2 -17.7 35.1 -6.6 11.4 -8.2 13.6 -8.9 12 -1.6 -3.9 -12.8 -50.4 -12.8 -53.3 0 -3.5 3.1 -6.1 7.1 -6.1 4 0 5.9 -1 5.9 -2.9 0 -1.5 -2.8 -2.2 -19.7 -4.6 -23.9 -3.4 -23.7 -3.4 -24.1 -1.3 -0.2 1 1.1 2.4 3.8 3.9 2.3 1.3 4.9 3.7 5.8 5.4 0.9 1.6 6.3 20.6 12.2 42 9.5 35 10.9 39.1 13.1 40.2 1.3 0.7 2.7 0.9 3.1 0.5 0.3 -0.4 8.5 -13.7 18.2 -29.6z m-82.1 21.8 c12.3 -0.6 13.7 -0.9 13.7 -2.5 0 -1.4 -1.3 -2.1 -6 -3 -6.7 -1.3 -8.8 -3.1 -10 -8.6 -1.3 -5.6 -3.3 -51.5 -2.6 -56.8 0.9 -5.6 2.4 -7.1 9.2 -9.1 4.3 -1.2 5.4 -2 5.4 -3.6 0 -2 -0.4 -2 -10.7 -1.4 -6 0.3 -17 0.9 -24.5 1.2 -12.4 0.6 -13.8 0.9 -13.8 2.5 0 1.3 1.3 2 5.5 2.9 6.9 1.4 9.4 3.4 10.5 8.5 1.3 5.6 3.3 46.6 2.7 54.9 -0.5 7.9 -1.2 8.7 -9.4 11.3 -4 1.3 -5.3 2.1 -5.3 3.6 0 1.9 0.6 1.9 10.8 1.3 5.9 -0.3 16.9 -0.9 24.5 -1.2z"/>
  <path d="M560.1 1025.6 c-5.2 -2.9 -6.6 -9.8 -2.8 -14.2 l2.3 -2.7 6.3 7.7 c3.5 4.2 6.2 7.9 6 8 -3.2 2.7 -8.2 3.2 -11.8 1.2z"/>
  <path d="M564.2 1001.6 c-3.2 -4.1 -3.6 -6.5 -1.6 -8.7 2.1 -2.3 3.7 -2.4 5.8 -0.3 2.1 2.1 2 6.7 -0.2 9.4 l-1.8 2.3 -2.2 -2.7z"/>
  <path d="M869.4 926.4 c-8 -3.9 -15.4 -13.8 -15.4 -20.6 0 -6.5 5.4 -11.8 12 -11.8 3.9 0 11.7 3.9 15.1 7.7 6.2 6.6 8.7 16.3 5.3 21.1 -3.4 4.9 -11 6.6 -17 3.6z"/>
  <path d="M530 872 l0 -11 7.6 0 c5.6 0 7.5 0.3 7.2 1.3 -0.3 0.7 -2.6 1.3 -5.6 1.5 -5 0.3 -5.2 0.4 -5.2 3.3 0 2.8 0.2 2.9 4.5 2.9 3.3 0 4.5 0.4 4.5 1.5 0 1.1 -1.2 1.5 -4.5 1.5 -4.5 0 -4.5 0 -4.5 3.5 l0 3.5 5.5 0 c4.2 0 5.5 0.3 5.5 1.5 0 1.2 -1.5 1.5 -7.5 1.5 l-7.5 0 0 -11z"/>
  <path d="M548.1 881.7 c-1.6 -2 -0.5 -2.5 4.4 -1.9 3.7 0.4 4.5 0.2 4.5 -1.2 0 -0.9 -1.1 -1.8 -2.7 -2.1 -1.6 -0.4 -3.5 -1 -4.3 -1.4 -2 -1.1 -2.4 -5.5 -0.6 -7 2.1 -1.7 9.1 -1 9.1 0.9 0 1.1 -0.9 1.4 -3.7 1.2 -2.9 -0.3 -3.8 0 -3.8 1.2 0 1 1.5 1.8 4.3 2.3 3.6 0.7 4.2 1.2 4.5 3.6 0.2 1.6 -0.2 3.5 -0.9 4.3 -1.5 1.8 -9.3 1.9 -10.8 0.1z"/>
  <path d="M565 881.1 c-0.5 -1.1 -1 -4 -1 -6.5 0 -2.6 -0.5 -4.6 -1.2 -4.9 -1 -0.4 -1 -0.7 0 -1.8 0.6 -0.7 1.2 -2.1 1.2 -3.1 0 -1.1 0.7 -1.8 2 -1.8 1.3 0 2 0.7 2 1.9 0 1 0.7 2.1 1.5 2.5 0.8 0.3 1.5 1 1.5 1.6 0 0.5 -0.7 1 -1.5 1 -1.1 0 -1.5 1.2 -1.5 4.9 0 3.4 0.4 5.1 1.5 5.5 2.4 0.9 1.7 2.6 -1 2.6 -1.4 0 -2.9 -0.8 -3.5 -1.9z"/>
  <path d="M575.2 881.8 c-0.7 -0.7 -1.2 -3.8 -1.2 -6.9 0 -6.5 1.4 -8.4 6 -7.7 2.8 0.4 3 0.3 3 -2.9 0 -2.6 0.4 -3.3 2 -3.3 1.9 0 2 0.7 2 10.8 l0 10.8 -5.3 0.2 c-3 0.1 -5.9 -0.4 -6.5 -1z m7.3 -6.8 c0 -4.1 -0.2 -4.5 -2.5 -4.5 -2.1 0 -2.6 0.5 -2.8 3.3 -0.5 4.7 0.4 6.4 3 6 2 -0.3 2.3 -0.9 2.3 -4.8z"/>
  <path d="M591 881 c0 -1.3 0.7 -2 2 -2 1.3 0 2 0.7 2 2 0 1.3 -0.7 2 -2 2 -1.3 0 -2 -0.7 -2 -2z"/>
  <path d="M607 881.4 c0 -0.9 2.3 -4.3 5 -7.6 5.5 -6.6 6 -8.2 3 -9.8 -1.6 -0.8 -2.3 -0.7 -3.7 1 -2 2.3 -4.3 2.6 -4.3 0.6 0 -3.6 5.7 -6.4 9.2 -4.5 5.1 2.7 5 6.2 -0.2 12.8 -2.2 2.8 -4 5.3 -4 5.6 0 0.3 1.8 0.5 4 0.5 2.9 0 4 0.4 4 1.5 0 1.2 -1.4 1.5 -6.5 1.5 -5.3 0 -6.5 -0.3 -6.5 -1.6z"/>
  <path d="M626.6 881.4 c-2.1 -2 -2.2 -16.1 -0.2 -18.9 1.7 -2.4 6.9 -2.4 9.6 0 1.6 1.5 2 3.1 2 8.9 0 8.8 -1.6 11.6 -6.5 11.6 -1.8 0 -4.1 -0.7 -4.9 -1.6z m7.4 -3.3 c1.1 -2.1 1.3 -8.3 0.4 -11.8 -0.7 -2.7 -3.2 -3.7 -5 -2.2 -1.5 1.2 -2 13.9 -0.7 15.2 1.3 1.4 4.3 0.7 5.3 -1.2z"/>
  <path d="M647 874 c0 -4.9 -0.3 -9 -0.7 -9 -0.3 0 -1.5 0.7 -2.5 1.7 -1.7 1.5 -1.8 1.5 -1.8 -0.5 0 -2.3 3.5 -5.2 6.2 -5.2 1.6 0 1.8 1.1 1.8 11 0 9.1 -0.3 11 -1.5 11 -1.2 0 -1.5 -1.7 -1.5 -9z"/>
  <path d="M658.2 881.8 c-1.6 -1.6 -1.5 -4.8 0.2 -4.8 0.8 0 1.6 0.7 2 1.5 0.8 2.3 4.5 1.8 5.5 -0.7 1.7 -4.7 -1.3 -8.3 -5 -6 -3.3 2.1 -3.9 1.4 -3.9 -4.8 l0 -6 6 0 c4.7 0 6 0.3 6 1.5 0 1.1 -1.2 1.5 -4.5 1.5 -4 0 -4.5 0.2 -4.5 2.3 0 2 0.4 2.3 2.8 2 4.3 -0.7 6.7 1.8 6.7 7 0 2.4 -0.6 5.1 -1.4 6 -1.6 2 -8.1 2.3 -9.9 0.5z"/>
  <path d="M572.4 833.6 c-1 -2 -2.7 -3.7 -4.1 -4 -1.6 -0.5 -2.3 -1.3 -2.3 -3.1 0 -2.6 1.8 -3.3 3.7 -1.4 0.7 0.7 1.5 0.5 2.7 -0.6 1.9 -2 0.8 -4.6 -2.9 -7.1 -4 -2.6 -2.9 -3.4 4.5 -3.4 5.6 0 7 -0.3 7 -1.5 0 -1.2 -1.6 -1.5 -8.3 -1.5 -7.7 0 -10.7 -0.9 -10.7 -3.2 0 -0.4 13.7 -0.8 30.5 -0.8 29.4 0 30.5 0.1 31.5 2 0.9 1.8 0.8 2 -1.5 2 l-2.5 0 0 10.5 c0 10.2 -0.1 10.5 -1.9 9.5 -1.4 -0.7 -2.1 -2.3 -2.3 -5.3 -0.3 -3.8 -0.6 -4.2 -3.1 -4.5 -2.2 -0.3 -3 0.1 -3.4 1.8 -0.7 2.7 -3.4 2.2 -5 -1 -1.8 -3.6 0 -5 6.3 -5 5.3 0 5.4 0 5.4 -3 l0 -3 -9 0 -9 0 0 10.5 c0 10.3 0 10.5 -2 9.3 -1.8 -1.1 -2 -2.4 -2 -10.5 l0 -9.3 -4 0 -4 0 0 10.5 0 10.5 -2.5 -1.2 c-2.3 -1 -2.5 -1.7 -2.5 -7 l0 -5.8 -3.6 0 c-3.4 0 -3.5 0.1 -2 2.2 2.3 3.2 2 7.3 -0.6 9 -2 1.4 -2 1.5 -0.4 4 1.1 1.7 1.3 2.8 0.7 3.3 -0.6 0.3 -1.8 -1 -2.7 -2.9z"/>
  <path d="M690.3 834 c-0.6 -1.6 -2.2 -3.4 -3.6 -3.9 -4.9 -1.9 -4.3 -6.5 0.8 -5.5 5 0.9 5.5 -2 1 -6.2 -1.9 -1.8 -3.5 -3.5 -3.5 -3.8 0 -0.3 3.2 -0.6 7 -0.6 5.6 0 7 -0.3 7 -1.5 0 -1.2 -1.8 -1.5 -10.5 -1.5 l-10.5 0 0 10.5 c0 10.3 -0.1 10.5 -2 9.5 -1.6 -0.9 -2 -2.1 -2 -6.5 0 -5.5 0 -5.5 -3.1 -5.5 -2.6 0 -3 0.3 -2.4 1.8 1.6 3.8 1.6 5 0 6.6 -2.1 2.1 -5 1.3 -8.8 -2.3 -3.1 -2.8 -6.2 -8 -5.3 -8.8 0.2 -0.3 1.9 1.1 3.6 3.1 5 5.7 9.7 3.9 5.5 -2.1 -1.5 -2.2 -1.5 -2.2 4.2 -2.5 4.6 -0.2 5.9 -0.7 6.1 -2 0.3 -1.6 -0.8 -1.8 -12.2 -1.8 l-12.6 0 0 10.5 c0 5.8 -0.3 10.5 -0.6 10.5 -0.3 0 -1.4 -0.5 -2.5 -1 -1.7 -0.9 -1.9 -2.2 -1.9 -10.5 0 -8.8 -0.2 -9.5 -2 -9.5 -1 0 -2.4 -0.9 -3 -2 -1 -1.8 -0.8 -2 2 -2 3.3 0 3.5 -0.2 2 -3 -2.3 -4.3 2.2 -10 7.7 -10 2.7 0 11.5 4.4 14.6 7.3 4 3.9 3.3 5.2 -1 1.9 -2.1 -1.7 -5.5 -3.6 -7.6 -4.3 -5.2 -1.8 -9.2 0.2 -9.2 4.6 l0 3 55.5 0.3 c54.2 0.2 55.6 0.3 56.8 2.2 1.1 1.8 1 2 -1.3 2 l-2.5 0 0 10.5 c0 10.3 0 10.5 -2 9.3 -1.8 -1.1 -2 -2.4 -2 -10.5 l0 -9.3 -4 0 -4 0 0 10.6 0 10.6 -2.2 -1.4 c-1.5 -1 -2.4 -2.7 -2.6 -5 -0.3 -3.2 -0.5 -3.4 -3.3 -3 -1.6 0.2 -3.5 -0.1 -4.3 -0.7 -1 -0.8 -1.7 -0.6 -2.9 0.7 -1.6 1.7 -1.5 2 1.3 4.7 2.9 2.8 3.9 5.5 2.1 5.5 -1.3 0 -9.1 -9 -10.1 -11.5 -1 -2.7 -0.2 -4.5 2.1 -4.5 1.4 0 1.9 -0.7 1.9 -3 0 -2.9 -0.1 -3 -5 -3 l-5 0 0 10.5 c0 10.3 0 10.5 -2 9.3 -1.8 -1.1 -2 -2.4 -2 -10.5 l0 -9.3 -4 0 -4 0 0 10.5 c0 5.8 -0.3 10.5 -0.7 10.5 -0.5 0 -1.6 -0.7 -2.5 -1.4 -1.4 -1 -1.8 -2.8 -1.8 -7 l0 -5.6 -3.6 0 c-3.6 0 -3.6 0 -2 2.5 2.2 3.4 2 7 -0.6 8.7 -2 1.3 -2 1.5 -0.4 3.9 1.4 2.3 1.3 3.9 -0.3 3.9 -0.4 0 -1.2 -1.3 -1.8 -3z m46.8 -16 c1.2 -0.7 1.9 -2.1 1.9 -4 0 -2.8 -0.2 -3 -4 -3 l-4 0 0 4 c0 3.4 0.3 4 2.1 4 1.1 0 2.9 -0.5 4 -1z"/>
  <path d="M415.3 833.5 c-2.2 -1.5 -2.3 -2.2 -2.3 -15.6 0 -7.6 0.3 -13.9 0.8 -13.9 0.4 0 1.5 0.7 2.5 1.4 1.6 1.2 1.7 2.9 1.5 15.5 l-0.3 14.1 -2.2 -1.5z"/>
  <path d="M784.3 833.3 c-2.2 -1.5 -2.3 -2.1 -2.3 -15.4 0 -7.7 0.3 -13.9 0.8 -13.9 0.4 0 1.5 0.7 2.5 1.4 1.6 1.2 1.7 2.9 1.5 15.4 l-0.3 13.9 -2.2 -1.4z"/>
  <path d="M424.3 833.3 c-1.5 -0.5 -1.9 -29.3 -0.5 -29.3 0.5 0 1.6 0.8 2.5 1.8 1.4 1.5 1.7 4.2 1.7 15 0 13.4 -0.2 14 -3.7 12.5z"/>
  <path d="M772.8 832.9 c-1.6 -0.9 -1.8 -2.7 -1.8 -14.9 0 -7.7 0.3 -14 0.6 -14 0.3 0 1.4 0.5 2.5 1 1.7 1 1.9 2.3 1.9 15 0 7.7 -0.3 14 -0.7 14 -0.5 0 -1.6 -0.5 -2.5 -1.1z"/>
  <path d="M463.3 830.7 c-1.7 -0.8 -2.3 -1.8 -2.3 -4.4 0 -2.2 -0.5 -3.3 -1.4 -3.3 -0.8 0 -2.1 -0.3 -2.9 -0.6 -1.1 -0.4 -1.4 0.2 -1.4 2.2 0 3.7 -3.8 6.7 -7.2 5.9 -2.8 -0.7 -7.6 -4.8 -9.3 -7.8 -1.7 -3.2 0 -3.1 3.1 0.2 4.1 4.4 10.1 4.1 10.1 -0.6 0 -2.2 -0.3 -2.4 -3 -1.8 -2.9 0.6 -3.1 0.5 -3.4 -2.7 -0.1 -0.7 1.3 -1.5 2.9 -1.8 2.4 -0.4 3 -1 3 -3 0 -3 -2.7 -3.8 -6.2 -1.9 -3 1.6 -5.4 -0.1 -3.3 -2.6 1.8 -2.2 7.3 -1.9 10.5 0.7 2.3 1.8 2.6 2.6 2.2 6 -0.4 3.2 -0.2 3.8 1.3 3.8 3.7 0 5 -1.2 5 -4.6 0 -2.4 -0.5 -3.4 -1.5 -3.4 -0.8 0 -1.5 -0.2 -1.5 -0.4 0 -0.2 -0.3 -1.1 -0.6 -2 -0.5 -1.4 0.3 -1.6 5.4 -1.6 4.5 0 6.1 0.4 6.6 1.6 0.9 2.3 0.8 2.4 -1.4 2.4 -1.8 0 -2 0.8 -2.2 10.4 -0.3 10.3 -0.3 10.3 -2.5 9.3z"/>
  <path d="M490.8 830.6 c-1 -0.7 -1.8 -2 -1.8 -2.9 0 -1.4 -0.4 -1.4 -3.5 -0.1 -4.5 1.8 -7.8 1 -11 -2.8 -3 -3.5 -3.1 -4.8 -0.7 -4.8 3.1 0 3.3 -1.1 0.7 -3.2 -2.9 -2.2 -3.4 -6.8 -1 -8.8 4.1 -3.4 11.5 0.9 11.5 6.7 0 2.4 -5 8.3 -7.1 8.3 -0.5 0 -0.9 0.5 -0.9 1 0 0.6 1.4 1 3.1 1 7.3 0 11.7 -10.2 6.7 -15.2 l-2.3 -2.3 20.3 -0.5 20.4 -0.5 -2.3 -3 c-3 -3.8 -3.9 -4.5 -6.5 -4.5 -1.3 0 -2.4 -0.8 -2.7 -2 -1.4 -5.5 6.2 -1.8 10.5 5.1 1.7 2.7 3.8 4.9 4.7 4.9 1.8 0 4.1 1.8 4.1 3.2 0 0.4 -0.9 0.8 -2 0.8 -1.9 0 -2 0.7 -2 10.6 l0 10.6 -2.2 -1.4 c-2.1 -1.4 -2.3 -2.5 -2.6 -10.7 l-0.3 -9.1 -3.9 0 -4 0 0 10.5 c0 10.2 -0.1 10.5 -2 9.3 -1.4 -0.9 -2 -2.6 -2.2 -6.8 -0.3 -4.9 -0.6 -5.5 -2.6 -5.8 -3.6 -0.5 -6.5 2.6 -5.8 6.2 0.4 1.6 1.4 3.8 2.3 4.8 2 2.2 1 3.6 -1.3 1.7 -2 -1.6 -5.3 -8.6 -5.4 -11.1 0 -3.3 3.7 -5.8 8.5 -5.8 3.3 0 4.5 -0.4 4.5 -1.5 0 -1.2 -1.7 -1.5 -9.5 -1.5 l-9.4 0 -0.3 10.4 c-0.3 9.7 -0.4 10.4 -2 9.2z m-9.9 -16.6 c0.8 -2.5 0.7 -3.2 -0.4 -3.7 -1.9 -0.7 -4.5 1.4 -4.5 3.7 0 4.1 3.4 4 4.9 0z"/>
  <path d="M537.5 830.1 c-0.9 -2.8 0.5 -5.1 3 -5.1 2.8 0 4.3 3.4 2.5 5.5 -1.7 2.1 -4.8 1.9 -5.5 -0.4z"/>
  <path d="M537.4 814.8 c-0.7 -2.2 1.9 -5.2 4 -4.5 1.7 0.6 2.9 3.4 2.3 5.1 -1 2.4 -5.4 2.1 -6.3 -0.6z"/>
  <path d="M446 768 l0 -7 154 0 154 0 0 7 0 7 -154 0 -154 0 0 -7z"/>
  <path d="M402.7 759.3 l-6.6 -8.8 -5.8 0.4 c-3.2 0.3 -4.9 0.6 -3.8 0.8 5.8 1.2 9.5 2.5 9.5 3.3 0 0.5 -2.6 1.4 -5.7 2 -10 2.1 -20.6 -0.3 -28.6 -6.5 -1.9 -1.4 -5.5 -3.2 -8.1 -4.1 -2.5 -0.9 -4.6 -1.7 -4.6 -1.8 0 -0.2 2.2 -0.1 4.8 0.2 3.6 0.3 6.2 -0.2 10.3 -1.9 7.6 -3.4 16.5 -3.2 23.6 0.4 l5.3 2.6 -5.8 -8.7 c-3.2 -4.8 -7.8 -11.9 -10.1 -15.9 l-4.2 -7.1 -5.7 -0.4 c-6.4 -0.4 -7.8 -0.2 -3.6 0.7 12 2.5 12.7 3.8 2.9 5.6 -8.4 1.5 -16.9 -0.2 -24.6 -5.2 -3.3 -2.2 -7.5 -4.6 -9.2 -5.3 l-3.2 -1.4 3.5 -0.1 c1.9 -0.1 6.2 -1.2 9.5 -2.6 7.3 -3 13.7 -3.2 20.7 -0.5 2.8 1.1 5.3 1.8 5.6 1.6 0.2 -0.2 -1.7 -4.4 -4.1 -9.2 -2.4 -4.9 -5.6 -12 -7.2 -15.9 -1.5 -3.8 -3 -7.3 -3.4 -7.7 -0.4 -0.4 -2.9 -1.4 -5.6 -2.2 -2.8 -0.8 -4.3 -1 -3.5 -0.5 0.8 0.6 3.3 2.1 5.5 3.5 l4 2.5 -7.2 -0.4 c-9.2 -0.5 -14.1 -3.3 -26 -14.7 -8.1 -7.8 -8.5 -8.3 -4.6 -6.4 3.5 1.8 5.4 2.1 10.3 1.7 7.9 -0.7 14 1.1 20.3 6 3.5 2.8 4.8 3.4 4.3 2.1 -1.6 -4.1 -6.4 -22.3 -7.6 -28.7 -0.9 -4.7 -1.8 -7 -2.9 -7.3 -0.9 -0.3 -3.4 -1.4 -5.6 -2.5 l-4 -2 3 2.3 c1.6 1.3 4.1 3.3 5.5 4.6 l2.5 2.3 -4 -0.6 c-9 -1.5 -17 -6.9 -22.7 -15.4 -1.7 -2.5 -5.2 -6.8 -7.7 -9.5 -3.4 -3.6 -3.7 -4.2 -1.3 -2.3 3.7 2.9 8.9 4.7 14.2 4.7 4.9 0 13.6 5.4 17.9 11 l3.4 4.5 -0.6 -3.5 c-1 -5.4 -2.7 -26.7 -2.7 -34.6 0 -6 -0.3 -7.4 -2.2 -9 l-2.1 -1.9 1.8 2.8 c2.5 3.9 1.2 4.5 -2.9 1.3 -5.2 -4 -9.1 -10.1 -12.4 -20 l-3 -8.7 2.7 2.4 c1.4 1.4 4 3.2 5.6 4 4.1 2.1 7.9 6.3 10.8 12 l2.4 4.8 0.7 -9.3 c0.3 -5.1 1.3 -13.3 2.1 -18.2 1.3 -8.2 1 -13.5 -0.5 -9.2 -0.5 1.5 -1.1 1.1 -3.2 -2.2 -3.1 -4.6 -5.4 -12.3 -6.1 -20.4 l-0.6 -5.7 4 4.5 c5 5.8 6.9 9.6 7.8 15.3 l0.7 4.6 1.8 -7.5 c1 -4.1 3 -11.3 4.3 -15.9 1.3 -4.8 2.1 -9.2 1.7 -10.5 -0.7 -2 -0.7 -2 -1.4 -0.1 -0.5 1.6 -1.1 0.8 -2.9 -3.9 -1.7 -4.6 -2.1 -7.6 -1.9 -13.4 l0.3 -7.6 3.8 7.3 c2.6 5.2 3.7 8.6 3.8 12 0 4.5 0.1 4.4 3.8 -5.9 2.1 -5.8 4.7 -12.7 5.9 -15.5 1.1 -2.7 2.3 -6.8 2.7 -9 0.4 -2.1 1.5 -5.5 2.5 -7.5 1.9 -3.6 11.7 -13.2 10.5 -10.3 -0.3 0.9 -1 3.6 -1.6 6.1 -1.3 5.8 -4.1 11.1 -7.5 14.2 -2.4 2.2 -2.6 2.3 -2 0.5 0.4 -1.2 0.4 -1.6 -0.1 -1 -1.3 1.4 -11.7 32.5 -11.1 33.1 0.3 0.2 1.8 -0.2 3.4 -1.1 3.2 -1.6 5.8 -1.8 12.7 -0.9 l4.6 0.7 -5.2 3.5 c-4.3 3 -6.3 3.7 -11.4 4 l-6.3 0.4 -1.1 4.2 c-1.4 5.1 -5.9 24.8 -5.9 25.9 0 0.4 0.9 -0.2 2.1 -1.4 3.4 -3.4 10.7 -6.2 14.4 -5.5 1.8 0.4 4.4 0.2 5.9 -0.4 2 -0.7 1.3 0.3 -3 4.4 -6.1 6 -10 8.2 -16.1 9.2 -3.8 0.6 -4.2 0.9 -4.7 4.3 -1.1 7 -2.6 21.7 -2.6 26 l0 4.3 3.3 -4.8 c3.8 -5.7 9.7 -10 15 -10.9 2.1 -0.4 5.2 -1.9 7 -3.3 l3.1 -2.7 -2.6 3.5 c-1.4 1.9 -4.2 6.3 -6.2 9.7 -2 3.3 -5 7.3 -6.8 8.9 -3.5 2.9 -10.9 6.6 -11.7 5.8 -0.3 -0.2 1.1 -2 3 -4 l3.4 -3.6 -3.8 2.4 -3.8 2.3 0.4 17.7 c0.3 9.7 0.8 18.2 1.2 18.8 0.4 0.6 2.1 -2 3.9 -5.7 1.8 -3.7 5 -8.4 7.1 -10.3 2.1 -1.9 6.1 -5.6 8.8 -8.2 2.7 -2.6 4.5 -3.9 4.1 -3 -0.4 0.9 -1.7 5.5 -2.9 10.2 -2.9 11.4 -6.9 19.2 -13.2 26.1 -2.9 3.1 -5.3 6.3 -5.3 7.2 0 2.4 7.1 30.1 7.9 31 0.5 0.4 1.1 -1.5 1.4 -4.4 0.9 -7.7 5.6 -16.7 12.9 -24.7 3.5 -3.8 7 -8.5 7.6 -10.3 0.6 -1.9 0.9 -2.3 0.6 -0.9 -0.7 3.7 -2.2 11.4 -3.8 20.7 -1.5 8.7 -5.6 18 -11 24.7 -3.6 4.6 -4.7 3.1 -2.1 -3 2.1 -5.2 1.4 -5.2 -1.4 0.1 l-2.3 4.4 3.7 9.8 c2.1 5.4 5.6 13.6 7.8 18.3 l4.1 8.5 0.7 -7.5 c1.1 -12.1 5.3 -22 12.6 -30.1 1.9 -2.1 4.3 -6 5.4 -8.6 1.1 -2.6 1.7 -3.7 1.4 -2.3 -0.3 1.4 -1 8.1 -1.4 15 -1.1 16.2 -5.3 28.6 -12.6 37.5 -1.6 1.9 -1.6 1.9 -1.1 -1.5 0.3 -1.9 0.8 -4.6 1.1 -6 0.4 -1.5 -0.4 -0.7 -1.8 2 -1.4 2.4 -2.2 5.1 -1.9 6 0.8 2.2 9.8 17.3 15.1 25.5 l4.6 7 0.6 -7.1 c1.1 -11.4 4.9 -21 11.9 -29.4 2 -2.5 4.4 -5.8 5.3 -7.5 1.5 -2.9 1.5 -2.5 1.1 7 -0.9 17.3 -5 31 -12 40.3 l-2.5 3.2 5.5 7.2 c3.1 3.9 5.6 7.5 5.6 8 0 2.2 -2.2 0.1 -8.3 -7.9z m-0.2 -22.1 c-0.3 -0.3 -0.5 0.1 -0.5 0.8 0 0.8 -0.9 3.3 -2.1 5.7 -1.2 2.6 -1.8 5 -1.4 6.1 0.5 1.2 1.3 -0.4 2.6 -5.2 1.1 -3.8 1.7 -7.1 1.4 -7.4z m-52.4 -111.4 l2.1 -4.3 -2.6 3 c-1.4 1.7 -2.5 3.6 -2.6 4.3 0 2.2 0.9 1.3 3.1 -3z m1.5 -85.6 c-0.7 -0.7 -4.6 0.9 -4.6 1.8 0 0.5 1.1 0.4 2.5 -0.2 1.4 -0.6 2.3 -1.3 2.1 -1.6z m6.9 -35.2 c1.9 -0.8 1.9 -0.9 -0.2 -0.9 -1.2 -0.1 -2.5 0.4 -2.8 0.9 -0.7 1.2 0.2 1.2 3 0z"/>
  <path d="M789 767.2 c0 -0.5 2.5 -4.1 5.6 -8 l5.5 -7.2 -2.5 -3.2 c-7 -9.3 -11.1 -23 -12 -40.3 -0.4 -9.5 -0.4 -9.9 1.1 -7 0.9 1.7 3.2 5 5.3 7.5 7.3 9.1 10.8 17.5 11.9 29.3 l0.7 7.2 4.7 -7.3 c2.6 -4 7.2 -11.5 10.2 -16.8 l5.5 -9.5 -2.5 -4.7 c-1.5 -2.6 -2.3 -3.6 -2 -2.2 0.3 1.4 0.8 4.1 1.1 6 0.5 3.4 0.5 3.4 -1.1 1.5 -7.2 -8.8 -11.5 -21.3 -12.5 -36.9 -0.4 -6.7 -1.1 -13.4 -1.4 -15.1 -0.4 -1.8 0.1 -1.1 1.3 1.8 1.1 2.6 3.5 6.5 5.4 8.6 7.6 8.4 11.4 17.5 12.6 30.1 l0.7 7.5 4 -8.5 c2.2 -4.7 5.8 -12.9 7.9 -18.2 l3.8 -9.7 -2.4 -4.5 c-2.8 -5.3 -3.6 -5.4 -1.4 -0.3 2.6 6.4 1.8 7.7 -2 3.2 -5.1 -6 -9.6 -16 -11.2 -25 -1.5 -9 -3 -16.8 -3.7 -20.5 -0.3 -1.4 0 -1 0.6 0.9 0.6 1.8 4.1 6.5 7.6 10.3 7.3 8 12 17 12.9 24.7 0.3 2.9 0.9 4.8 1.4 4.4 0.8 -0.9 7.9 -28.6 7.9 -31 0 -0.9 -2.4 -4.2 -5.4 -7.4 -6.4 -6.8 -10.1 -14.2 -13.1 -25.9 -1.2 -4.7 -2.5 -9.3 -2.9 -10.2 -0.4 -0.9 1.4 0.4 4.1 3 2.7 2.6 6.6 6.2 8.6 8.1 3.8 3.5 8.3 10.6 9.3 14.8 1.5 5.8 2.6 -0.6 3.1 -17.3 l0.4 -17.9 -3.8 -2.3 -3.8 -2.4 3.4 3.6 c1.9 2 3.3 3.8 3 4 -0.8 0.8 -8.2 -2.9 -11.7 -5.8 -1.8 -1.6 -4.8 -5.6 -6.8 -8.9 -2 -3.4 -4.8 -7.8 -6.2 -9.7 l-2.5 -3.5 2.4 2.2 c1.4 1.3 4.8 3 7.6 3.8 6.9 2 11.2 5.2 15.1 10.9 l3.2 4.8 0 -4.3 c0 -4.3 -1.5 -19 -2.6 -26 -0.5 -3.4 -0.9 -3.7 -4.7 -4.3 -6.1 -1 -10 -3.2 -16.1 -9.2 -4.3 -4.1 -5 -5.1 -3 -4.4 1.5 0.6 4.1 0.8 5.9 0.4 3.7 -0.7 11 2.1 14.4 5.5 1.2 1.2 2.1 1.8 2.1 1.4 0 -1.1 -4.5 -20.8 -5.9 -25.9 l-1.1 -4.2 -6.3 -0.4 c-5.1 -0.3 -7.1 -1 -11.4 -4 l-5.2 -3.5 4.6 -0.7 c6.9 -0.9 9.5 -0.7 12.7 0.9 1.6 0.9 3.1 1.3 3.4 1.1 0.6 -0.6 -9.8 -31.7 -11.1 -33.1 -0.5 -0.6 -0.5 -0.2 -0.1 1 0.6 1.8 0.4 1.7 -2 -0.5 -3.4 -3.1 -6.2 -8.4 -7.5 -14.2 -0.6 -2.5 -1.3 -5.2 -1.6 -6.1 -1.2 -2.9 8.6 6.7 10.5 10.3 1 2 2.1 5.4 2.5 7.5 0.4 2.2 1.6 6.3 2.7 9 1.2 2.8 3.8 9.7 5.9 15.5 3.7 10.1 3.8 10.3 3.9 6 0 -4.1 2 -9.3 6.5 -17 2.5 -4.3 2 11.5 -0.6 18.4 -2.1 5.7 -4.1 8.3 -3.2 4.4 0.4 -2.1 0.3 -2.1 -0.7 -0.5 -0.9 1.5 -0.7 3.7 1.4 11 1.4 5.1 3.3 12.4 4.3 16.2 l1.7 7 0.7 -4.6 c0.9 -5.7 2.8 -9.5 7.8 -15.3 l4 -4.5 -0.6 5.7 c-0.7 8.1 -3 15.8 -6.1 20.4 -2.1 3.3 -2.7 3.7 -3.2 2.2 -1.5 -4.3 -1.8 1 -0.5 9.2 0.8 4.9 1.8 13.1 2.2 18.3 l0.6 9.4 2.8 -5.5 c2.6 -5.2 9.9 -12.8 12.3 -12.8 0.5 0 2.2 -1.1 3.6 -2.5 l2.7 -2.5 -2.8 8.4 c-3 9.5 -7.2 16.2 -12.5 20.2 -4.1 3.2 -5.2 2.7 -2.8 -1.3 l1.8 -2.8 -2.2 1.9 c-1.9 1.6 -2.2 2.9 -2.2 9 0 7.9 -1.7 29.2 -2.7 34.6 l-0.6 3.5 3.4 -4.5 c4.3 -5.6 13 -11 17.9 -11 5.3 0 10.5 -1.8 14.2 -4.7 2.4 -1.9 2.1 -1.3 -1.3 2.3 -2.5 2.7 -6 7 -7.7 9.5 -5.7 8.5 -13.7 13.9 -22.7 15.4 l-4 0.6 2.5 -2.3 c1.4 -1.3 3.9 -3.3 5.5 -4.6 l3 -2.3 -4 2 c-2.2 1.1 -4.7 2.2 -5.6 2.5 -1.1 0.3 -2 2.6 -2.9 7.3 -1.2 6.4 -6 24.6 -7.6 28.6 -0.5 1.3 1 0.6 4.5 -2.1 6.7 -5 11.1 -6.3 20.8 -6 7 0.2 8.3 -0.1 11.4 -2.2 1.8 -1.3 -0.8 1.6 -5.9 6.5 -12.3 11.9 -17.2 14.7 -26.5 15.2 l-7.2 0.4 4 -2.5 c2.2 -1.4 4.7 -2.9 5.5 -3.5 1.5 -0.9 -7.3 1.3 -8.9 2.3 -0.4 0.3 -1.8 3.3 -3.1 6.8 -1.2 3.4 -4.4 10.7 -7.1 16.1 -2.7 5.5 -4.8 10.2 -4.6 10.3 0.2 0.2 2.7 -0.5 5.5 -1.6 7 -2.7 13 -2.5 20.4 0.5 3.4 1.4 7.8 2.5 9.7 2.5 l3.6 0.1 -3 1.3 c-1.6 0.7 -5.8 3.1 -9.2 5.3 -7.9 5.2 -16.3 7 -24.8 5.4 -9.8 -1.8 -9.1 -3.1 2.9 -5.6 4.2 -0.9 2.8 -1.1 -3.6 -0.7 l-5.7 0.4 -4.2 7.1 c-2.3 4 -6.9 11.1 -10.1 15.9 l-5.8 8.7 5.1 -2.6 c6.9 -3.6 16.1 -3.8 23.8 -0.4 4.1 1.7 6.7 2.2 10.3 1.9 2.6 -0.3 4.8 -0.4 4.8 -0.2 0 0.1 -1.7 0.8 -3.7 1.5 -2.1 0.6 -6.1 2.7 -8.9 4.5 -6.8 4.5 -11.2 6.2 -17.6 7 -5.6 0.7 -16.8 -1.1 -16.8 -2.6 0 -0.8 3.7 -2.1 9.5 -3.3 1.1 -0.2 -0.6 -0.5 -3.8 -0.8 l-5.8 -0.4 -6.6 8.8 c-6.1 8 -8.3 10.1 -8.3 7.9z m10.5 -24.4 c-1.4 -3.4 -2.4 -5.2 -2 -3.8 2.5 10.6 2.9 12 3.8 11.1 0.6 -0.6 -0.1 -3.3 -1.8 -7.3z m53.5 -113.5 c-0.1 -1 -1.2 -3.1 -2.6 -4.8 l-2.5 -3 2.2 4.8 c2.5 5.1 2.9 5.6 2.9 3z m-1 -88.3 c-0.8 -0.6 -2.2 -1 -3 -0.9 -0.9 0 -0.5 0.6 1 1.4 2.7 1.4 4.4 1 2 -0.5z m-7.5 -36 c-0.3 -0.5 -1.6 -1 -2.8 -0.9 -2.1 0 -2.1 0.1 -0.2 0.9 2.8 1.2 3.7 1.2 3 0z"/>
  <path d="M454 750 l0 -6 146 0 146 0 0 6 0 6 -146 0 -146 0 0 -6z"/>
  <path d="M462 733.5 l0 -5.5 138 0 138 0 0 5.5 0 5.5 -138 0 -138 0 0 -5.5z"/>
  <path d="M481.1 721.1 l2.4 -1.9 0.3 -73.1 0.2 -73.1 6 0 6 0 0.2 73.1 0.3 73.1 2.4 1.9 c2.3 1.9 2.3 1.9 -8.9 1.9 -11.2 0 -11.2 0 -8.9 -1.9z"/>
  <path d="M554.1 721.1 l2.4 -1.9 0.3 -73.1 0.2 -73.1 6 0 6 0 0.2 73.1 0.3 73.1 2.4 1.9 c2.3 1.9 2.3 1.9 -8.9 1.9 -11.2 0 -11.2 0 -8.9 -1.9z"/>
  <path d="M627.1 721.1 l2.4 -1.9 0.3 -73.1 0.2 -73.1 6 0 6 0 0.2 73.1 0.3 73.1 2.4 1.9 c2.3 1.9 2.3 1.9 -8.9 1.9 -11.2 0 -11.2 0 -8.9 -1.9z"/>
  <path d="M700 721.7 l2.5 -1.3 0.3 -73.7 0.2 -73.7 6.3 0 6.2 0 -0.3 71.9 -0.2 71.9 2.6 3.1 2.6 3.1 -11.4 0 c-9.8 0 -11 -0.2 -8.8 -1.3z"/>
  <path d="M481.6 568.4 c-0.3 -0.9 -0.6 -1.8 -0.6 -2 0 -0.2 4.1 -0.4 9 -0.4 8.8 0 9 0.1 8 2 -0.9 1.7 -2.1 2 -8.4 2 -5.8 0 -7.5 -0.3 -8 -1.6z"/>
  <path d="M555 568 c-1 -1.9 -0.8 -2 8 -2 8.8 0 9 0.1 8 2 -0.9 1.7 -2.1 2 -8 2 -5.9 0 -7.1 -0.3 -8 -2z"/>
  <path d="M628 568 c-1 -1.9 -0.8 -2 8.1 -2 7.9 0 9 0.2 8.5 1.6 -0.3 0.9 -0.6 1.8 -0.6 2 0 0.2 -3.4 0.4 -7.5 0.4 -6.4 0 -7.6 -0.3 -8.5 -2z"/>
  <path d="M701.6 568.4 c-0.3 -0.9 -0.6 -1.8 -0.6 -2 0 -0.2 3.9 -0.4 8.6 -0.4 7.4 0 8.5 0.2 8 1.6 -0.3 0.9 -0.6 1.8 -0.6 2 0 0.2 -3.3 0.4 -7.4 0.4 -5.8 0 -7.5 -0.3 -8 -1.6z"/>
  <path d="M483 541.5 l0 -21.5 -9.5 0 c-8.8 0 -9.5 -0.1 -9.5 -2 0 -2 0.7 -2 135.5 -2 134.8 0 135.5 0 135.5 2 0 1.9 -0.7 2 -9 2 l-9 0 0 21.5 0 21.5 -7.5 0 -7.5 0 0 -4.4 c0 -2.6 -0.6 -4.8 -1.5 -5.6 -0.8 -0.7 -1.5 -2.1 -1.5 -3 0 -1 -1.2 -2.8 -2.7 -3.9 -1.6 -1.1 -3.6 -2.8 -4.6 -3.8 -1.9 -1.8 -10.2 -5.3 -12.7 -5.3 -0.8 0 -2.8 -0.7 -4.3 -1.5 -2.6 -1.3 -3.1 -1.3 -5 0 -1.2 0.8 -3.1 1.5 -4.2 1.5 -3 0 -11.7 3.5 -12.9 5.2 -0.6 0.8 -2.1 2 -3.3 2.6 -2.9 1.6 -7.3 10.5 -7.3 14.8 l0 3.4 -6.6 0 -6.6 0 0.5 -2.7 c0.8 -4.1 -3.4 -12.2 -8.5 -16.4 -2.4 -1.9 -6.8 -4.4 -9.8 -5.3 -3 -1 -7 -2.5 -8.8 -3.2 -2.9 -1.2 -3.6 -1.2 -5.5 0.1 -1.2 0.8 -3.4 1.5 -4.9 1.5 -1.5 0 -2.9 0.4 -3.2 0.9 -0.3 0.4 -1.9 1.1 -3.5 1.4 -1.7 0.4 -3.9 1.5 -5 2.6 -1.1 1.1 -2.9 2.4 -4 3 -2.7 1.5 -7.1 10.5 -7.1 14.7 l0 3.4 -6.6 0 -6.6 0 0.5 -3 c1.5 -7 -8 -18.1 -18.3 -21.4 -3 -1 -7 -2.5 -8.8 -3.2 -2.9 -1.2 -3.6 -1.2 -5.5 0.1 -1.2 0.8 -3.2 1.5 -4.4 1.5 -1.3 0 -3.1 0.4 -4.1 0.8 -7.7 3.8 -15.2 8.9 -15.2 10.5 0 0.7 -0.9 2.9 -2 5 -1.1 2 -2 5 -2 6.7 l0 3 -6.5 0 -6.5 0 0 -21.5z"/>
  <path d="M465 509 l0 -5 135 0 135 0 0 5 0 5 -135 0 -135 0 0 -5z"/>
  <path d="M461.1 496.8 l-2 -3.3 140.1 -0.3 c77.1 -0.1 140.3 0 140.6 0.2 0.2 0.3 -0.6 1.8 -1.9 3.5 l-2.3 3.1 -136.2 0 -136.2 0 -2.1 -3.2z"/>
  <path d="M487.9 488.5 c-1.1 -1 1.3 -13 4.2 -21.9 9.5 -28.5 29.3 -51.4 55.9 -64.5 l6.5 -3.2 -3.5 2.8 c-16.9 13.6 -29.6 32.2 -36.9 54 -2.9 8.7 -5.7 21.8 -6.3 29.3 l-0.3 3.5 -9.5 0.3 c-5.3 0.1 -9.8 0 -10.1 -0.3z"/>
  <path d="M516.4 482.3 c3.8 -37.4 25.3 -73 52.5 -87.2 6.9 -3.6 9.8 -4.6 18.5 -6.6 l2.9 -0.6 -3.5 3.9 c-7.6 8.5 -13.6 22.6 -18.1 43.2 -2.7 12.3 -5.7 33.4 -5.7 40.5 0 2.3 -0.3 6.3 -0.6 8.9 l-0.7 4.6 -23 0 -23 0 0.7 -6.7z"/>
  <path d="M568 486.2 c0 -1.6 0.5 -8.7 1 -15.8 3.1 -39.8 10.8 -67.9 21.5 -79.1 4.5 -4.7 7.5 -5.4 12.3 -2.9 12.1 6.3 23.9 48.6 25.4 91.1 l0.3 9 -30.2 0.3 -30.3 0.2 0 -2.8z"/>
  <path d="M634.7 488.3 c-0.4 -0.3 -0.7 -3.6 -0.7 -7.2 0 -3.6 -0.7 -12.4 -1.5 -19.5 -3.8 -32.8 -12.1 -58.3 -22.5 -69.6 l-3.8 -4.1 3.2 0.6 c34.7 6.9 62.7 42 70.1 88 0.8 4.9 1.5 9.8 1.5 10.8 0 1.6 -1.8 1.7 -22.8 1.7 -12.6 0 -23.2 -0.3 -23.5 -0.7z"/>
  <path d="M689.6 487.8 c-0.2 -0.7 -1.2 -6 -2.1 -11.8 -1.9 -11.5 -5.7 -24 -10.3 -34.3 -6.1 -13.3 -18.2 -29.4 -28.1 -37.2 -2.8 -2.1 -4.8 -4.1 -4.6 -4.3 0.6 -0.6 13.2 6.5 20.4 11.6 13.8 9.7 28.1 27.1 35 42.5 4.2 9.4 7.8 21.3 8.7 28.5 l0.7 6.2 -9.7 0 c-6.9 0 -9.8 -0.4 -10 -1.2z"/>
  <path d="M586 380.1 c0 -6.1 -0.2 -6.9 -2.1 -7.4 -3.1 -0.8 -2.1 -4.1 1.4 -4.5 1.9 -0.2 2.7 -0.9 2.7 -2.3 0 -1 0.7 -1.9 1.5 -1.9 0.8 0 1.5 -0.5 1.5 -1.1 0 -1.4 2.6 -3.9 4 -3.9 0.8 0 1 -0.9 0.6 -2.4 -0.3 -1.4 -0.2 -2.7 0.3 -3 0.5 -0.3 0.9 -3.1 1 -6.1 0 -6.4 1.5 -10.3 2.4 -6.4 0.3 1.3 0.4 4.2 0.3 6.4 -0.2 2.2 0.1 4.6 0.7 5.2 0.5 0.7 0.6 2 0.3 2.9 -0.7 1.7 2.3 5.4 4.4 5.4 0.5 0 1 0.7 1 1.5 0 0.8 0.4 1.5 0.9 1.5 0.5 0 1.1 0.9 1.4 2 0.3 1.4 1.4 2 3.1 2 2.1 0 2.6 0.5 2.6 2.4 0 1.8 -0.6 2.5 -2.2 2.8 -2.1 0.3 -2.3 0.9 -2.6 7.1 -0.2 4.9 -0.7 6.7 -1.7 6.7 -1 0 -1.5 -1.8 -1.8 -6.7 l-0.3 -6.8 -0.2 6.8 c-0.2 5.9 -0.4 6.7 -2.2 6.7 -1.7 0 -1.9 -0.8 -2.2 -6.7 -0.3 -6.5 -0.4 -6.8 -2.8 -6.8 -2.4 0 -2.5 0.3 -2.8 6.8 -0.3 5.9 -0.5 6.7 -2.2 6.7 -1.8 0 -2 -0.7 -2 -6.5 0 -3.7 -0.4 -6.5 -1 -6.5 -0.6 0 -1 2.8 -1 6.5 0 5.1 -0.3 6.5 -1.5 6.5 -1.2 0 -1.5 -1.4 -1.5 -6.9z"/>
  <path d="M303.8 912.4 c-3.1 -1.6 -4.8 -4.3 -4.8 -7.3 0 -2 21.4 -26.1 23.2 -26.1 1.4 0 6.7 9.1 7.4 12.6 1.9 10.3 -8.1 22.5 -18.6 22.4 -2.5 -0.1 -5.7 -0.7 -7.2 -1.6z"/>
  <path d="M935.3 851.4 c-2.3 -0.8 -6.3 -3.4 -8.9 -5.7 -7.7 -6.8 -9.5 -14.1 -4.8 -19.6 5.1 -6.1 15.4 -5.9 24.5 0.5 7.7 5.3 11.1 12.7 8.6 18.7 -2.8 6.6 -11 9.2 -19.4 6.1z"/>
  <path d="M234.1 784.4 c-1.7 -1.4 -3.1 -2.9 -3.1 -3.2 0 -0.4 3.4 -2.5 7.6 -4.6 8.5 -4.3 9.4 -4.1 9.4 2.6 0 7.1 -8 10.2 -13.9 5.2z"/>
  <path d="M211.7 741.3 c-0.3 -1.6 -0.9 -3.6 -1.2 -4.5 -0.6 -1.6 0 -1.8 5.9 -1.8 3.6 0 6.6 0.4 6.6 0.8 0 1 -8.6 8.2 -9.8 8.2 -0.5 0 -1.2 -1.2 -1.5 -2.7z"/>
  <path d="M831 271.7 c-2.3 -1.2 -4.2 -2.7 -4.1 -3.2 0.2 -1.3 19.4 -27.5 20.1 -27.5 0.8 0 7.4 7 9.4 10 0.9 1.4 1.6 4.4 1.6 7.1 0 12.4 -14.9 20 -27 13.6z"/>
 </g>
</svg>